<mxfile host="app.diagrams.net" modified="2023-11-22T00:00:07.196Z" agent="Mozilla/5.0 (Windows NT 10.0; Win64; x64) AppleWebKit/537.36 (KHTML, like Gecko) Chrome/119.0.0.0 Safari/537.36 Edg/119.0.0.0" etag="reyJRvvnsefC86FeBIR8" version="22.1.3" type="github">
  <diagram name="PÃ¡gina-1" id="1zxCoN62ttcMdRLy-pqy">
    <mxGraphModel dx="1167" dy="1814" grid="1" gridSize="10" guides="1" tooltips="1" connect="1" arrows="1" fold="1" page="1" pageScale="1" pageWidth="827" pageHeight="1169" math="0" shadow="0">
      <root>
        <mxCell id="0" />
        <mxCell id="1" parent="0" />
        <mxCell id="ABUvw_rNZOJrgvvg1hrZ-1" value="Naviera" style="swimlane;fontStyle=1;align=center;verticalAlign=top;childLayout=stackLayout;horizontal=1;startSize=26;horizontalStack=0;resizeParent=1;resizeParentMax=0;resizeLast=0;collapsible=1;marginBottom=0;whiteSpace=wrap;html=1;" parent="1" vertex="1">
          <mxGeometry x="550" y="30" width="190" height="138" as="geometry">
            <mxRectangle x="820" width="80" height="30" as="alternateBounds" />
          </mxGeometry>
        </mxCell>
        <mxCell id="ABUvw_rNZOJrgvvg1hrZ-2" value="- buques: List&amp;lt;Buque&amp;gt;" style="text;strokeColor=none;fillColor=none;align=left;verticalAlign=top;spacingLeft=4;spacingRight=4;overflow=hidden;rotatable=0;points=[[0,0.5],[1,0.5]];portConstraint=eastwest;whiteSpace=wrap;html=1;" parent="ABUvw_rNZOJrgvvg1hrZ-1" vertex="1">
          <mxGeometry y="26" width="190" height="26" as="geometry" />
        </mxCell>
        <mxCell id="ABUvw_rNZOJrgvvg1hrZ-5" value="- circuitos: List&amp;lt;CircuitoMaritimo&amp;gt;" style="text;strokeColor=none;fillColor=none;align=left;verticalAlign=top;spacingLeft=4;spacingRight=4;overflow=hidden;rotatable=0;points=[[0,0.5],[1,0.5]];portConstraint=eastwest;whiteSpace=wrap;html=1;" parent="ABUvw_rNZOJrgvvg1hrZ-1" vertex="1">
          <mxGeometry y="52" width="190" height="26" as="geometry" />
        </mxCell>
        <mxCell id="wMsCpwQgi6BDoyRRbQmV-76" value="- viajes: List&amp;lt;Viaje&amp;gt;" style="text;strokeColor=none;fillColor=none;align=left;verticalAlign=top;spacingLeft=4;spacingRight=4;overflow=hidden;rotatable=0;points=[[0,0.5],[1,0.5]];portConstraint=eastwest;whiteSpace=wrap;html=1;" parent="ABUvw_rNZOJrgvvg1hrZ-1" vertex="1">
          <mxGeometry y="78" width="190" height="26" as="geometry" />
        </mxCell>
        <mxCell id="ABUvw_rNZOJrgvvg1hrZ-3" value="" style="line;strokeWidth=1;fillColor=none;align=left;verticalAlign=middle;spacingTop=-1;spacingLeft=3;spacingRight=3;rotatable=0;labelPosition=right;points=[];portConstraint=eastwest;strokeColor=inherit;" parent="ABUvw_rNZOJrgvvg1hrZ-1" vertex="1">
          <mxGeometry y="104" width="190" height="8" as="geometry" />
        </mxCell>
        <mxCell id="ABUvw_rNZOJrgvvg1hrZ-4" value="+ method(type): type" style="text;strokeColor=none;fillColor=none;align=left;verticalAlign=top;spacingLeft=4;spacingRight=4;overflow=hidden;rotatable=0;points=[[0,0.5],[1,0.5]];portConstraint=eastwest;whiteSpace=wrap;html=1;" parent="ABUvw_rNZOJrgvvg1hrZ-1" vertex="1">
          <mxGeometry y="112" width="190" height="26" as="geometry" />
        </mxCell>
        <mxCell id="ya0v8lYfS8ipV5AFdHxH-1" style="edgeStyle=orthogonalEdgeStyle;rounded=0;orthogonalLoop=1;jettySize=auto;html=1;exitX=0.5;exitY=0;exitDx=0;exitDy=0;entryX=0.379;entryY=1.001;entryDx=0;entryDy=0;entryPerimeter=0;endArrow=block;endFill=0;" parent="1" source="ABUvw_rNZOJrgvvg1hrZ-6" target="I0zZV60bpWjbYKbzvoeE-19" edge="1">
          <mxGeometry relative="1" as="geometry" />
        </mxCell>
        <mxCell id="ABUvw_rNZOJrgvvg1hrZ-6" value="TerminalGestionada" style="swimlane;fontStyle=1;align=center;verticalAlign=top;childLayout=stackLayout;horizontal=1;startSize=26;horizontalStack=0;resizeParent=1;resizeParentMax=0;resizeLast=0;collapsible=1;marginBottom=0;whiteSpace=wrap;html=1;" parent="1" vertex="1">
          <mxGeometry x="1680" y="250" width="305" height="370" as="geometry" />
        </mxCell>
        <mxCell id="ABUvw_rNZOJrgvvg1hrZ-7" value="- navieras: List&amp;lt;Naviera&amp;gt;" style="text;strokeColor=none;fillColor=none;align=left;verticalAlign=top;spacingLeft=4;spacingRight=4;overflow=hidden;rotatable=0;points=[[0,0.5],[1,0.5]];portConstraint=eastwest;whiteSpace=wrap;html=1;" parent="ABUvw_rNZOJrgvvg1hrZ-6" vertex="1">
          <mxGeometry y="26" width="305" height="26" as="geometry" />
        </mxCell>
        <mxCell id="I0zZV60bpWjbYKbzvoeE-28" value="- coordenadas: Punto" style="text;strokeColor=none;fillColor=none;align=left;verticalAlign=top;spacingLeft=4;spacingRight=4;overflow=hidden;rotatable=0;points=[[0,0.5],[1,0.5]];portConstraint=eastwest;whiteSpace=wrap;html=1;" parent="ABUvw_rNZOJrgvvg1hrZ-6" vertex="1">
          <mxGeometry y="52" width="305" height="26" as="geometry" />
        </mxCell>
        <mxCell id="I0zZV60bpWjbYKbzvoeE-29" value="&lt;div&gt;- filtro_mejor_circuito: CriterioCircuito&lt;/div&gt;&lt;div&gt;- shippers : List &amp;lt;Shipper&amp;gt;&lt;/div&gt;&lt;div&gt;- consignees : List&amp;lt;Consignees&amp;gt;&lt;/div&gt;&lt;div&gt;- emprTransportistas: List &amp;lt;EmpresaTransportista&amp;gt;&lt;br&gt;&lt;/div&gt;&lt;div&gt;- camiones: List&amp;lt;Camion&amp;gt;&lt;/div&gt;&lt;div&gt;- conductores: List&amp;lt;Conductor&amp;gt;&lt;/div&gt;&lt;div&gt;- ordenesImportacion: List&amp;lt;OrdenImportacion&amp;gt;&lt;br&gt;&lt;/div&gt;&lt;div&gt;-ordenesExprotacion: List&amp;lt;OrdenExportacion&amp;gt;&lt;/div&gt;&lt;div&gt;&lt;br&gt;&lt;/div&gt;" style="text;strokeColor=none;fillColor=none;align=left;verticalAlign=top;spacingLeft=4;spacingRight=4;overflow=hidden;rotatable=0;points=[[0,0.5],[1,0.5]];portConstraint=eastwest;whiteSpace=wrap;html=1;" parent="ABUvw_rNZOJrgvvg1hrZ-6" vertex="1">
          <mxGeometry y="78" width="305" height="132" as="geometry" />
        </mxCell>
        <mxCell id="ABUvw_rNZOJrgvvg1hrZ-8" value="" style="line;strokeWidth=1;fillColor=none;align=left;verticalAlign=middle;spacingTop=-1;spacingLeft=3;spacingRight=3;rotatable=0;labelPosition=right;points=[];portConstraint=eastwest;strokeColor=inherit;" parent="ABUvw_rNZOJrgvvg1hrZ-6" vertex="1">
          <mxGeometry y="210" width="305" height="8" as="geometry" />
        </mxCell>
        <mxCell id="ABUvw_rNZOJrgvvg1hrZ-9" value="&lt;div&gt;+ calcularMejorCircuito(): CircuitoMaritimo&lt;/div&gt;&lt;div&gt;+ exportar(OrdenDeExportacion): LocalDateTime&lt;/div&gt;&lt;div&gt;+ importar(OrdenDeImportacion): LocalDateTime&lt;br&gt;&lt;/div&gt;&lt;div&gt;- buscrarCircuitoMaritimo(Filtro)&lt;br&gt;+ setCriterioMejorCircuito(CriterioCircuito): void&lt;/div&gt;&lt;div&gt;+ cuantoTardaEnLlegar(Naviera, TerminalPortuaria): int&lt;/div&gt;&lt;div&gt;+ proximaSalidaBuque(TerminalPortuaria): LocalDateTime&lt;br&gt;&lt;/div&gt;" style="text;strokeColor=none;fillColor=none;align=left;verticalAlign=top;spacingLeft=4;spacingRight=4;overflow=hidden;rotatable=0;points=[[0,0.5],[1,0.5]];portConstraint=eastwest;whiteSpace=wrap;html=1;" parent="ABUvw_rNZOJrgvvg1hrZ-6" vertex="1">
          <mxGeometry y="218" width="305" height="152" as="geometry" />
        </mxCell>
        <mxCell id="ABUvw_rNZOJrgvvg1hrZ-12" value="Buque" style="swimlane;fontStyle=1;align=center;verticalAlign=top;childLayout=stackLayout;horizontal=1;startSize=26;horizontalStack=0;resizeParent=1;resizeParentMax=0;resizeLast=0;collapsible=1;marginBottom=0;whiteSpace=wrap;html=1;" parent="1" vertex="1">
          <mxGeometry x="1670" y="-550" width="450" height="320" as="geometry" />
        </mxCell>
        <mxCell id="ABUvw_rNZOJrgvvg1hrZ-14" value="" style="line;strokeWidth=1;fillColor=none;align=left;verticalAlign=middle;spacingTop=-1;spacingLeft=3;spacingRight=3;rotatable=0;labelPosition=right;points=[];portConstraint=eastwest;strokeColor=inherit;" parent="ABUvw_rNZOJrgvvg1hrZ-12" vertex="1">
          <mxGeometry y="26" width="450" height="8" as="geometry" />
        </mxCell>
        <mxCell id="ABUvw_rNZOJrgvvg1hrZ-15" value="+ new(List&amp;lt;Container&amp;gt;, GPS, TerminalPortuaria, FaseDeBuqueOutbound): Buque" style="text;strokeColor=none;fillColor=none;align=left;verticalAlign=top;spacingLeft=4;spacingRight=4;overflow=hidden;rotatable=0;points=[[0,0.5],[1,0.5]];portConstraint=eastwest;whiteSpace=wrap;html=1;" parent="ABUvw_rNZOJrgvvg1hrZ-12" vertex="1">
          <mxGeometry y="34" width="450" height="26" as="geometry" />
        </mxCell>
        <mxCell id="e3Tv4PrM7sJhTQVXualJ-5" value="+ getCarga(): List&amp;lt;Container&amp;gt;" style="text;strokeColor=none;fillColor=none;align=left;verticalAlign=top;spacingLeft=4;spacingRight=4;overflow=hidden;rotatable=0;points=[[0,0.5],[1,0.5]];portConstraint=eastwest;whiteSpace=wrap;html=1;" vertex="1" parent="ABUvw_rNZOJrgvvg1hrZ-12">
          <mxGeometry y="60" width="450" height="26" as="geometry" />
        </mxCell>
        <mxCell id="e3Tv4PrM7sJhTQVXualJ-6" value="+ getTerminal(): TerminalPortuaria" style="text;strokeColor=none;fillColor=none;align=left;verticalAlign=top;spacingLeft=4;spacingRight=4;overflow=hidden;rotatable=0;points=[[0,0.5],[1,0.5]];portConstraint=eastwest;whiteSpace=wrap;html=1;" vertex="1" parent="ABUvw_rNZOJrgvvg1hrZ-12">
          <mxGeometry y="86" width="450" height="26" as="geometry" />
        </mxCell>
        <mxCell id="e3Tv4PrM7sJhTQVXualJ-7" value="+ getFase(): FaseDeBuque" style="text;strokeColor=none;fillColor=none;align=left;verticalAlign=top;spacingLeft=4;spacingRight=4;overflow=hidden;rotatable=0;points=[[0,0.5],[1,0.5]];portConstraint=eastwest;whiteSpace=wrap;html=1;" vertex="1" parent="ABUvw_rNZOJrgvvg1hrZ-12">
          <mxGeometry y="112" width="450" height="26" as="geometry" />
        </mxCell>
        <mxCell id="e3Tv4PrM7sJhTQVXualJ-8" value="+ getGPS(): GPS" style="text;strokeColor=none;fillColor=none;align=left;verticalAlign=top;spacingLeft=4;spacingRight=4;overflow=hidden;rotatable=0;points=[[0,0.5],[1,0.5]];portConstraint=eastwest;whiteSpace=wrap;html=1;" vertex="1" parent="ABUvw_rNZOJrgvvg1hrZ-12">
          <mxGeometry y="138" width="450" height="26" as="geometry" />
        </mxCell>
        <mxCell id="e3Tv4PrM7sJhTQVXualJ-9" value="+ calcularDistanciaATerminal(): Double" style="text;strokeColor=none;fillColor=none;align=left;verticalAlign=top;spacingLeft=4;spacingRight=4;overflow=hidden;rotatable=0;points=[[0,0.5],[1,0.5]];portConstraint=eastwest;whiteSpace=wrap;html=1;" vertex="1" parent="ABUvw_rNZOJrgvvg1hrZ-12">
          <mxGeometry y="164" width="450" height="26" as="geometry" />
        </mxCell>
        <mxCell id="e3Tv4PrM7sJhTQVXualJ-10" value="+ cambiarFase(): void" style="text;strokeColor=none;fillColor=none;align=left;verticalAlign=top;spacingLeft=4;spacingRight=4;overflow=hidden;rotatable=0;points=[[0,0.5],[1,0.5]];portConstraint=eastwest;whiteSpace=wrap;html=1;" vertex="1" parent="ABUvw_rNZOJrgvvg1hrZ-12">
          <mxGeometry y="190" width="450" height="26" as="geometry" />
        </mxCell>
        <mxCell id="e3Tv4PrM7sJhTQVXualJ-11" value="+ avisarArriboATerminal(): void" style="text;strokeColor=none;fillColor=none;align=left;verticalAlign=top;spacingLeft=4;spacingRight=4;overflow=hidden;rotatable=0;points=[[0,0.5],[1,0.5]];portConstraint=eastwest;whiteSpace=wrap;html=1;" vertex="1" parent="ABUvw_rNZOJrgvvg1hrZ-12">
          <mxGeometry y="216" width="450" height="26" as="geometry" />
        </mxCell>
        <mxCell id="e3Tv4PrM7sJhTQVXualJ-12" value="+ realizarCargaYDescarga(): void" style="text;strokeColor=none;fillColor=none;align=left;verticalAlign=top;spacingLeft=4;spacingRight=4;overflow=hidden;rotatable=0;points=[[0,0.5],[1,0.5]];portConstraint=eastwest;whiteSpace=wrap;html=1;" vertex="1" parent="ABUvw_rNZOJrgvvg1hrZ-12">
          <mxGeometry y="242" width="450" height="26" as="geometry" />
        </mxCell>
        <mxCell id="e3Tv4PrM7sJhTQVXualJ-13" value="+ depart(): void" style="text;strokeColor=none;fillColor=none;align=left;verticalAlign=top;spacingLeft=4;spacingRight=4;overflow=hidden;rotatable=0;points=[[0,0.5],[1,0.5]];portConstraint=eastwest;whiteSpace=wrap;html=1;" vertex="1" parent="ABUvw_rNZOJrgvvg1hrZ-12">
          <mxGeometry y="268" width="450" height="26" as="geometry" />
        </mxCell>
        <mxCell id="e3Tv4PrM7sJhTQVXualJ-14" value="+ avisarPartidaATerminal(): void" style="text;strokeColor=none;fillColor=none;align=left;verticalAlign=top;spacingLeft=4;spacingRight=4;overflow=hidden;rotatable=0;points=[[0,0.5],[1,0.5]];portConstraint=eastwest;whiteSpace=wrap;html=1;" vertex="1" parent="ABUvw_rNZOJrgvvg1hrZ-12">
          <mxGeometry y="294" width="450" height="26" as="geometry" />
        </mxCell>
        <mxCell id="I0zZV60bpWjbYKbzvoeE-3" value="&lt;i&gt;Container&lt;/i&gt;" style="swimlane;fontStyle=1;align=center;verticalAlign=top;childLayout=stackLayout;horizontal=1;startSize=26;horizontalStack=0;resizeParent=1;resizeParentMax=0;resizeLast=0;collapsible=1;marginBottom=0;whiteSpace=wrap;html=1;" parent="1" vertex="1">
          <mxGeometry x="1320" y="-542" width="160" height="144" as="geometry" />
        </mxCell>
        <mxCell id="I0zZV60bpWjbYKbzvoeE-4" value="- ancho&lt;br&gt;&lt;div&gt;- largo&lt;/div&gt;&lt;div&gt;- altura&lt;/div&gt;&lt;div&gt;- peso_total&lt;/div&gt;&lt;div&gt;- servicios: List&amp;lt;Servicio&amp;gt;&lt;/div&gt;&lt;div&gt;&lt;br&gt;&lt;/div&gt;&lt;div&gt;&lt;br&gt;&lt;/div&gt;&lt;div&gt;&lt;br&gt;&lt;/div&gt;&lt;div&gt;&lt;br&gt;&lt;/div&gt;" style="text;strokeColor=none;fillColor=none;align=left;verticalAlign=top;spacingLeft=4;spacingRight=4;overflow=hidden;rotatable=0;points=[[0,0.5],[1,0.5]];portConstraint=eastwest;whiteSpace=wrap;html=1;" parent="I0zZV60bpWjbYKbzvoeE-3" vertex="1">
          <mxGeometry y="26" width="160" height="84" as="geometry" />
        </mxCell>
        <mxCell id="I0zZV60bpWjbYKbzvoeE-5" value="" style="line;strokeWidth=1;fillColor=none;align=left;verticalAlign=middle;spacingTop=-1;spacingLeft=3;spacingRight=3;rotatable=0;labelPosition=right;points=[];portConstraint=eastwest;strokeColor=inherit;" parent="I0zZV60bpWjbYKbzvoeE-3" vertex="1">
          <mxGeometry y="110" width="160" height="8" as="geometry" />
        </mxCell>
        <mxCell id="I0zZV60bpWjbYKbzvoeE-6" value="+ consumoPorHora(): int" style="text;strokeColor=none;fillColor=none;align=left;verticalAlign=top;spacingLeft=4;spacingRight=4;overflow=hidden;rotatable=0;points=[[0,0.5],[1,0.5]];portConstraint=eastwest;whiteSpace=wrap;html=1;" parent="I0zZV60bpWjbYKbzvoeE-3" vertex="1">
          <mxGeometry y="118" width="160" height="26" as="geometry" />
        </mxCell>
        <mxCell id="vE86NBOg6e0xh6bUCSpT-1" value="ContainerDry" style="swimlane;fontStyle=1;align=center;verticalAlign=top;childLayout=stackLayout;horizontal=1;startSize=26;horizontalStack=0;resizeParent=1;resizeParentMax=0;resizeLast=0;collapsible=1;marginBottom=0;whiteSpace=wrap;html=1;" parent="1" vertex="1">
          <mxGeometry x="960" y="-760" width="160" height="34" as="geometry" />
        </mxCell>
        <mxCell id="vE86NBOg6e0xh6bUCSpT-3" value="" style="line;strokeWidth=1;fillColor=none;align=left;verticalAlign=middle;spacingTop=-1;spacingLeft=3;spacingRight=3;rotatable=0;labelPosition=right;points=[];portConstraint=eastwest;strokeColor=inherit;" parent="vE86NBOg6e0xh6bUCSpT-1" vertex="1">
          <mxGeometry y="26" width="160" height="8" as="geometry" />
        </mxCell>
        <mxCell id="vE86NBOg6e0xh6bUCSpT-9" value="ContainerTanque" style="swimlane;fontStyle=1;align=center;verticalAlign=top;childLayout=stackLayout;horizontal=1;startSize=26;horizontalStack=0;resizeParent=1;resizeParentMax=0;resizeLast=0;collapsible=1;marginBottom=0;whiteSpace=wrap;html=1;" parent="1" vertex="1">
          <mxGeometry x="1200" y="-760" width="160" height="34" as="geometry" />
        </mxCell>
        <mxCell id="vE86NBOg6e0xh6bUCSpT-11" value="" style="line;strokeWidth=1;fillColor=none;align=left;verticalAlign=middle;spacingTop=-1;spacingLeft=3;spacingRight=3;rotatable=0;labelPosition=right;points=[];portConstraint=eastwest;strokeColor=inherit;" parent="vE86NBOg6e0xh6bUCSpT-9" vertex="1">
          <mxGeometry y="26" width="160" height="8" as="geometry" />
        </mxCell>
        <mxCell id="I0zZV60bpWjbYKbzvoeE-7" value="EmpresaTransportista" style="swimlane;fontStyle=1;align=center;verticalAlign=top;childLayout=stackLayout;horizontal=1;startSize=26;horizontalStack=0;resizeParent=1;resizeParentMax=0;resizeLast=0;collapsible=1;marginBottom=0;whiteSpace=wrap;html=1;" parent="1" vertex="1">
          <mxGeometry x="370" y="-250" width="290" height="164" as="geometry" />
        </mxCell>
        <mxCell id="I0zZV60bpWjbYKbzvoeE-9" value="" style="line;strokeWidth=1;fillColor=none;align=left;verticalAlign=middle;spacingTop=-1;spacingLeft=3;spacingRight=3;rotatable=0;labelPosition=right;points=[];portConstraint=eastwest;strokeColor=inherit;" parent="I0zZV60bpWjbYKbzvoeE-7" vertex="1">
          <mxGeometry y="26" width="290" height="8" as="geometry" />
        </mxCell>
        <mxCell id="I0zZV60bpWjbYKbzvoeE-10" value="+ new(): EmpresaTransportista" style="text;strokeColor=none;fillColor=none;align=left;verticalAlign=top;spacingLeft=4;spacingRight=4;overflow=hidden;rotatable=0;points=[[0,0.5],[1,0.5]];portConstraint=eastwest;whiteSpace=wrap;html=1;" parent="I0zZV60bpWjbYKbzvoeE-7" vertex="1">
          <mxGeometry y="34" width="290" height="26" as="geometry" />
        </mxCell>
        <mxCell id="LPZ_iTTPC1OW5Bad9vyf-11" value="+ agregarConductor(Conductor): void" style="text;strokeColor=none;fillColor=none;align=left;verticalAlign=top;spacingLeft=4;spacingRight=4;overflow=hidden;rotatable=0;points=[[0,0.5],[1,0.5]];portConstraint=eastwest;whiteSpace=wrap;html=1;" parent="I0zZV60bpWjbYKbzvoeE-7" vertex="1">
          <mxGeometry y="60" width="290" height="26" as="geometry" />
        </mxCell>
        <mxCell id="LPZ_iTTPC1OW5Bad9vyf-12" value="+ agregarCamion(Camion): void" style="text;strokeColor=none;fillColor=none;align=left;verticalAlign=top;spacingLeft=4;spacingRight=4;overflow=hidden;rotatable=0;points=[[0,0.5],[1,0.5]];portConstraint=eastwest;whiteSpace=wrap;html=1;" parent="I0zZV60bpWjbYKbzvoeE-7" vertex="1">
          <mxGeometry y="86" width="290" height="26" as="geometry" />
        </mxCell>
        <mxCell id="LPZ_iTTPC1OW5Bad9vyf-14" value="+ getConductores(): List&amp;lt;Conductor&amp;gt;" style="text;strokeColor=none;fillColor=none;align=left;verticalAlign=top;spacingLeft=4;spacingRight=4;overflow=hidden;rotatable=0;points=[[0,0.5],[1,0.5]];portConstraint=eastwest;whiteSpace=wrap;html=1;" parent="I0zZV60bpWjbYKbzvoeE-7" vertex="1">
          <mxGeometry y="112" width="290" height="26" as="geometry" />
        </mxCell>
        <mxCell id="LPZ_iTTPC1OW5Bad9vyf-15" value="+ getCamiones(): List&amp;lt;Camion&amp;gt;" style="text;strokeColor=none;fillColor=none;align=left;verticalAlign=top;spacingLeft=4;spacingRight=4;overflow=hidden;rotatable=0;points=[[0,0.5],[1,0.5]];portConstraint=eastwest;whiteSpace=wrap;html=1;" parent="I0zZV60bpWjbYKbzvoeE-7" vertex="1">
          <mxGeometry y="138" width="290" height="26" as="geometry" />
        </mxCell>
        <mxCell id="I0zZV60bpWjbYKbzvoeE-11" value="Camion" style="swimlane;fontStyle=1;align=center;verticalAlign=top;childLayout=stackLayout;horizontal=1;startSize=26;horizontalStack=0;resizeParent=1;resizeParentMax=0;resizeLast=0;collapsible=1;marginBottom=0;whiteSpace=wrap;html=1;" parent="1" vertex="1">
          <mxGeometry x="792" y="-430" width="230" height="138" as="geometry" />
        </mxCell>
        <mxCell id="I0zZV60bpWjbYKbzvoeE-12" value="+ carga: Container" style="text;strokeColor=none;fillColor=none;align=left;verticalAlign=top;spacingLeft=4;spacingRight=4;overflow=hidden;rotatable=0;points=[[0,0.5],[1,0.5]];portConstraint=eastwest;whiteSpace=wrap;html=1;" parent="I0zZV60bpWjbYKbzvoeE-11" vertex="1">
          <mxGeometry y="26" width="230" height="26" as="geometry" />
        </mxCell>
        <mxCell id="I0zZV60bpWjbYKbzvoeE-13" value="" style="line;strokeWidth=1;fillColor=none;align=left;verticalAlign=middle;spacingTop=-1;spacingLeft=3;spacingRight=3;rotatable=0;labelPosition=right;points=[];portConstraint=eastwest;strokeColor=inherit;" parent="I0zZV60bpWjbYKbzvoeE-11" vertex="1">
          <mxGeometry y="52" width="230" height="8" as="geometry" />
        </mxCell>
        <mxCell id="I0zZV60bpWjbYKbzvoeE-14" value="+ new(Container, Conductor): Camion" style="text;strokeColor=none;fillColor=none;align=left;verticalAlign=top;spacingLeft=4;spacingRight=4;overflow=hidden;rotatable=0;points=[[0,0.5],[1,0.5]];portConstraint=eastwest;whiteSpace=wrap;html=1;" parent="I0zZV60bpWjbYKbzvoeE-11" vertex="1">
          <mxGeometry y="60" width="230" height="26" as="geometry" />
        </mxCell>
        <mxCell id="LPZ_iTTPC1OW5Bad9vyf-5" value="+ getCarga(): Container" style="text;strokeColor=none;fillColor=none;align=left;verticalAlign=top;spacingLeft=4;spacingRight=4;overflow=hidden;rotatable=0;points=[[0,0.5],[1,0.5]];portConstraint=eastwest;whiteSpace=wrap;html=1;" parent="I0zZV60bpWjbYKbzvoeE-11" vertex="1">
          <mxGeometry y="86" width="230" height="26" as="geometry" />
        </mxCell>
        <mxCell id="LPZ_iTTPC1OW5Bad9vyf-6" value="+ getConductor(): Conductor" style="text;strokeColor=none;fillColor=none;align=left;verticalAlign=top;spacingLeft=4;spacingRight=4;overflow=hidden;rotatable=0;points=[[0,0.5],[1,0.5]];portConstraint=eastwest;whiteSpace=wrap;html=1;" parent="I0zZV60bpWjbYKbzvoeE-11" vertex="1">
          <mxGeometry y="112" width="230" height="26" as="geometry" />
        </mxCell>
        <mxCell id="5zhQQYnLI66ePEPqatI0-8" style="edgeStyle=orthogonalEdgeStyle;rounded=0;orthogonalLoop=1;jettySize=auto;html=1;entryX=0;entryY=0.706;entryDx=0;entryDy=0;entryPerimeter=0;" parent="1" source="I0zZV60bpWjbYKbzvoeE-16" target="yJXyIbkkPUpZtxzlh9dZ-2" edge="1">
          <mxGeometry relative="1" as="geometry" />
        </mxCell>
        <mxCell id="I0zZV60bpWjbYKbzvoeE-16" value="TerminalPortuaria" style="swimlane;fontStyle=1;align=center;verticalAlign=top;childLayout=stackLayout;horizontal=1;startSize=26;horizontalStack=0;resizeParent=1;resizeParentMax=0;resizeLast=0;collapsible=1;marginBottom=0;whiteSpace=wrap;html=1;" parent="1" vertex="1">
          <mxGeometry x="1703" y="86" width="259" height="100" as="geometry" />
        </mxCell>
        <mxCell id="I0zZV60bpWjbYKbzvoeE-17" value="- cordenadas:&amp;nbsp;Punto" style="text;strokeColor=none;fillColor=none;align=left;verticalAlign=top;spacingLeft=4;spacingRight=4;overflow=hidden;rotatable=0;points=[[0,0.5],[1,0.5]];portConstraint=eastwest;whiteSpace=wrap;html=1;" parent="I0zZV60bpWjbYKbzvoeE-16" vertex="1">
          <mxGeometry y="26" width="259" height="26" as="geometry" />
        </mxCell>
        <mxCell id="I0zZV60bpWjbYKbzvoeE-18" value="" style="line;strokeWidth=1;fillColor=none;align=left;verticalAlign=middle;spacingTop=-1;spacingLeft=3;spacingRight=3;rotatable=0;labelPosition=right;points=[];portConstraint=eastwest;strokeColor=inherit;" parent="I0zZV60bpWjbYKbzvoeE-16" vertex="1">
          <mxGeometry y="52" width="259" height="8" as="geometry" />
        </mxCell>
        <mxCell id="I0zZV60bpWjbYKbzvoeE-19" value="+ getCoordenadas(): Punto&lt;br&gt;+ calcularDistancia(TerminalPortuaria): Double" style="text;strokeColor=none;fillColor=none;align=left;verticalAlign=top;spacingLeft=4;spacingRight=4;overflow=hidden;rotatable=0;points=[[0,0.5],[1,0.5]];portConstraint=eastwest;whiteSpace=wrap;html=1;" parent="I0zZV60bpWjbYKbzvoeE-16" vertex="1">
          <mxGeometry y="60" width="259" height="40" as="geometry" />
        </mxCell>
        <mxCell id="vE86NBOg6e0xh6bUCSpT-18" value="Tramo" style="swimlane;fontStyle=1;align=center;verticalAlign=top;childLayout=stackLayout;horizontal=1;startSize=26;horizontalStack=0;resizeParent=1;resizeParentMax=0;resizeLast=0;collapsible=1;marginBottom=0;whiteSpace=wrap;html=1;" parent="1" vertex="1">
          <mxGeometry x="1369" y="112" width="270" height="210" as="geometry" />
        </mxCell>
        <mxCell id="vE86NBOg6e0xh6bUCSpT-19" value="&lt;div&gt;+ origen: TerminalPortuaria&lt;/div&gt;&lt;div&gt;+ destino: TerminalPortuaria&lt;br&gt;&lt;/div&gt;&lt;div&gt;+ distancia: Double&lt;/div&gt;&lt;div&gt;+ precio: Double&lt;/div&gt;&lt;div&gt;+ tiempo_de_recorrido: Double&lt;br&gt;&lt;/div&gt;" style="text;strokeColor=none;fillColor=none;align=left;verticalAlign=top;spacingLeft=4;spacingRight=4;overflow=hidden;rotatable=0;points=[[0,0.5],[1,0.5]];portConstraint=eastwest;whiteSpace=wrap;html=1;" parent="vE86NBOg6e0xh6bUCSpT-18" vertex="1">
          <mxGeometry y="26" width="270" height="84" as="geometry" />
        </mxCell>
        <mxCell id="vE86NBOg6e0xh6bUCSpT-20" value="" style="line;strokeWidth=1;fillColor=none;align=left;verticalAlign=middle;spacingTop=-1;spacingLeft=3;spacingRight=3;rotatable=0;labelPosition=right;points=[];portConstraint=eastwest;strokeColor=inherit;" parent="vE86NBOg6e0xh6bUCSpT-18" vertex="1">
          <mxGeometry y="110" width="270" height="8" as="geometry" />
        </mxCell>
        <mxCell id="vE86NBOg6e0xh6bUCSpT-21" value="+ getOrigen():TerminalPortuaria&lt;br&gt;+ getDestino(): TerminalPortuaria&lt;br&gt;+ getPrecio(): Double&lt;br&gt;+ getTiempoRecorrido(): Double&lt;br&gt;+ contieneTerminal(TerminalPortuaria): boolean" style="text;strokeColor=none;fillColor=none;align=left;verticalAlign=top;spacingLeft=4;spacingRight=4;overflow=hidden;rotatable=0;points=[[0,0.5],[1,0.5]];portConstraint=eastwest;whiteSpace=wrap;html=1;" parent="vE86NBOg6e0xh6bUCSpT-18" vertex="1">
          <mxGeometry y="118" width="270" height="92" as="geometry" />
        </mxCell>
        <mxCell id="vE86NBOg6e0xh6bUCSpT-22" value="CircuitoMaritimo" style="swimlane;fontStyle=1;align=center;verticalAlign=top;childLayout=stackLayout;horizontal=1;startSize=26;horizontalStack=0;resizeParent=1;resizeParentMax=0;resizeLast=0;collapsible=1;marginBottom=0;whiteSpace=wrap;html=1;" parent="1" vertex="1">
          <mxGeometry x="840" y="102" width="400" height="230" as="geometry" />
        </mxCell>
        <mxCell id="vE86NBOg6e0xh6bUCSpT-23" value="+ tramos: List&amp;lt;Tramo&amp;gt;" style="text;strokeColor=none;fillColor=none;align=left;verticalAlign=top;spacingLeft=4;spacingRight=4;overflow=hidden;rotatable=0;points=[[0,0.5],[1,0.5]];portConstraint=eastwest;whiteSpace=wrap;html=1;" parent="vE86NBOg6e0xh6bUCSpT-22" vertex="1">
          <mxGeometry y="26" width="400" height="26" as="geometry" />
        </mxCell>
        <mxCell id="vE86NBOg6e0xh6bUCSpT-24" value="" style="line;strokeWidth=1;fillColor=none;align=left;verticalAlign=middle;spacingTop=-1;spacingLeft=3;spacingRight=3;rotatable=0;labelPosition=right;points=[];portConstraint=eastwest;strokeColor=inherit;" parent="vE86NBOg6e0xh6bUCSpT-22" vertex="1">
          <mxGeometry y="52" width="400" height="8" as="geometry" />
        </mxCell>
        <mxCell id="vE86NBOg6e0xh6bUCSpT-25" value="+ agregarTramo(Tramo): boolean&lt;br&gt;- verificarTramo(Tramo): void&lt;br&gt;+ subCircuito(TerminalPortuaria,TerminalPortuaria): CircuitoMaritimo&lt;br&gt;+ contieneTerminal(TerminalPortuaria):boolean&lt;br&gt;+ tiempoTotal():Double&lt;br&gt;+ precioTotal():Double&lt;br&gt;- mapReduceToDouble(ToDoubleFunction&amp;lt;Tramo&amp;gt;):Double&lt;br&gt;- posicionComoOrigen(TerminalPortuaria):int&lt;br&gt;- posicionComoDestino(TerminalPortuaria):int" style="text;strokeColor=none;fillColor=none;align=left;verticalAlign=top;spacingLeft=4;spacingRight=4;overflow=hidden;rotatable=0;points=[[0,0.5],[1,0.5]];portConstraint=eastwest;whiteSpace=wrap;html=1;" parent="vE86NBOg6e0xh6bUCSpT-22" vertex="1">
          <mxGeometry y="60" width="400" height="170" as="geometry" />
        </mxCell>
        <mxCell id="I0zZV60bpWjbYKbzvoeE-30" value="Filtro" style="swimlane;fontStyle=1;align=center;verticalAlign=top;childLayout=stackLayout;horizontal=1;startSize=26;horizontalStack=0;resizeParent=1;resizeParentMax=0;resizeLast=0;collapsible=1;marginBottom=0;whiteSpace=wrap;html=1;" parent="1" vertex="1">
          <mxGeometry x="497" y="398" width="390" height="86" as="geometry" />
        </mxCell>
        <mxCell id="I0zZV60bpWjbYKbzvoeE-31" value="+ field: type" style="text;strokeColor=none;fillColor=none;align=left;verticalAlign=top;spacingLeft=4;spacingRight=4;overflow=hidden;rotatable=0;points=[[0,0.5],[1,0.5]];portConstraint=eastwest;whiteSpace=wrap;html=1;" parent="I0zZV60bpWjbYKbzvoeE-30" vertex="1">
          <mxGeometry y="26" width="390" height="26" as="geometry" />
        </mxCell>
        <mxCell id="I0zZV60bpWjbYKbzvoeE-32" value="" style="line;strokeWidth=1;fillColor=none;align=left;verticalAlign=middle;spacingTop=-1;spacingLeft=3;spacingRight=3;rotatable=0;labelPosition=right;points=[];portConstraint=eastwest;strokeColor=inherit;" parent="I0zZV60bpWjbYKbzvoeE-30" vertex="1">
          <mxGeometry y="52" width="390" height="8" as="geometry" />
        </mxCell>
        <mxCell id="I0zZV60bpWjbYKbzvoeE-33" value="+ filtrar()" style="text;strokeColor=none;fillColor=none;align=left;verticalAlign=top;spacingLeft=4;spacingRight=4;overflow=hidden;rotatable=0;points=[[0,0.5],[1,0.5]];portConstraint=eastwest;whiteSpace=wrap;html=1;fontStyle=2" parent="I0zZV60bpWjbYKbzvoeE-30" vertex="1">
          <mxGeometry y="60" width="390" height="26" as="geometry" />
        </mxCell>
        <mxCell id="I0zZV60bpWjbYKbzvoeE-34" value="esPuertoDestino" style="swimlane;fontStyle=1;align=center;verticalAlign=top;childLayout=stackLayout;horizontal=1;startSize=26;horizontalStack=0;resizeParent=1;resizeParentMax=0;resizeLast=0;collapsible=1;marginBottom=0;whiteSpace=wrap;html=1;" parent="1" vertex="1">
          <mxGeometry x="414" y="598" width="160" height="86" as="geometry" />
        </mxCell>
        <mxCell id="I0zZV60bpWjbYKbzvoeE-35" value="+ field: type" style="text;strokeColor=none;fillColor=none;align=left;verticalAlign=top;spacingLeft=4;spacingRight=4;overflow=hidden;rotatable=0;points=[[0,0.5],[1,0.5]];portConstraint=eastwest;whiteSpace=wrap;html=1;" parent="I0zZV60bpWjbYKbzvoeE-34" vertex="1">
          <mxGeometry y="26" width="160" height="26" as="geometry" />
        </mxCell>
        <mxCell id="I0zZV60bpWjbYKbzvoeE-36" value="" style="line;strokeWidth=1;fillColor=none;align=left;verticalAlign=middle;spacingTop=-1;spacingLeft=3;spacingRight=3;rotatable=0;labelPosition=right;points=[];portConstraint=eastwest;strokeColor=inherit;" parent="I0zZV60bpWjbYKbzvoeE-34" vertex="1">
          <mxGeometry y="52" width="160" height="8" as="geometry" />
        </mxCell>
        <mxCell id="I0zZV60bpWjbYKbzvoeE-37" value="+ filtrar()" style="text;strokeColor=none;fillColor=none;align=left;verticalAlign=top;spacingLeft=4;spacingRight=4;overflow=hidden;rotatable=0;points=[[0,0.5],[1,0.5]];portConstraint=eastwest;whiteSpace=wrap;html=1;" parent="I0zZV60bpWjbYKbzvoeE-34" vertex="1">
          <mxGeometry y="60" width="160" height="26" as="geometry" />
        </mxCell>
        <mxCell id="I0zZV60bpWjbYKbzvoeE-38" value="LlegaEn" style="swimlane;fontStyle=1;align=center;verticalAlign=top;childLayout=stackLayout;horizontal=1;startSize=26;horizontalStack=0;resizeParent=1;resizeParentMax=0;resizeLast=0;collapsible=1;marginBottom=0;whiteSpace=wrap;html=1;" parent="1" vertex="1">
          <mxGeometry x="610" y="598" width="160" height="86" as="geometry" />
        </mxCell>
        <mxCell id="I0zZV60bpWjbYKbzvoeE-39" value="+ field: type" style="text;strokeColor=none;fillColor=none;align=left;verticalAlign=top;spacingLeft=4;spacingRight=4;overflow=hidden;rotatable=0;points=[[0,0.5],[1,0.5]];portConstraint=eastwest;whiteSpace=wrap;html=1;" parent="I0zZV60bpWjbYKbzvoeE-38" vertex="1">
          <mxGeometry y="26" width="160" height="26" as="geometry" />
        </mxCell>
        <mxCell id="I0zZV60bpWjbYKbzvoeE-40" value="" style="line;strokeWidth=1;fillColor=none;align=left;verticalAlign=middle;spacingTop=-1;spacingLeft=3;spacingRight=3;rotatable=0;labelPosition=right;points=[];portConstraint=eastwest;strokeColor=inherit;" parent="I0zZV60bpWjbYKbzvoeE-38" vertex="1">
          <mxGeometry y="52" width="160" height="8" as="geometry" />
        </mxCell>
        <mxCell id="I0zZV60bpWjbYKbzvoeE-41" value="+ filtrar()" style="text;strokeColor=none;fillColor=none;align=left;verticalAlign=top;spacingLeft=4;spacingRight=4;overflow=hidden;rotatable=0;points=[[0,0.5],[1,0.5]];portConstraint=eastwest;whiteSpace=wrap;html=1;" parent="I0zZV60bpWjbYKbzvoeE-38" vertex="1">
          <mxGeometry y="60" width="160" height="26" as="geometry" />
        </mxCell>
        <mxCell id="I0zZV60bpWjbYKbzvoeE-42" value="SaleEn" style="swimlane;fontStyle=1;align=center;verticalAlign=top;childLayout=stackLayout;horizontal=1;startSize=26;horizontalStack=0;resizeParent=1;resizeParentMax=0;resizeLast=0;collapsible=1;marginBottom=0;whiteSpace=wrap;html=1;" parent="1" vertex="1">
          <mxGeometry x="812" y="598" width="160" height="86" as="geometry" />
        </mxCell>
        <mxCell id="I0zZV60bpWjbYKbzvoeE-43" value="+ field: type" style="text;strokeColor=none;fillColor=none;align=left;verticalAlign=top;spacingLeft=4;spacingRight=4;overflow=hidden;rotatable=0;points=[[0,0.5],[1,0.5]];portConstraint=eastwest;whiteSpace=wrap;html=1;" parent="I0zZV60bpWjbYKbzvoeE-42" vertex="1">
          <mxGeometry y="26" width="160" height="26" as="geometry" />
        </mxCell>
        <mxCell id="I0zZV60bpWjbYKbzvoeE-44" value="" style="line;strokeWidth=1;fillColor=none;align=left;verticalAlign=middle;spacingTop=-1;spacingLeft=3;spacingRight=3;rotatable=0;labelPosition=right;points=[];portConstraint=eastwest;strokeColor=inherit;" parent="I0zZV60bpWjbYKbzvoeE-42" vertex="1">
          <mxGeometry y="52" width="160" height="8" as="geometry" />
        </mxCell>
        <mxCell id="I0zZV60bpWjbYKbzvoeE-45" value="+ filtrar()" style="text;strokeColor=none;fillColor=none;align=left;verticalAlign=top;spacingLeft=4;spacingRight=4;overflow=hidden;rotatable=0;points=[[0,0.5],[1,0.5]];portConstraint=eastwest;whiteSpace=wrap;html=1;" parent="I0zZV60bpWjbYKbzvoeE-42" vertex="1">
          <mxGeometry y="60" width="160" height="26" as="geometry" />
        </mxCell>
        <mxCell id="vE86NBOg6e0xh6bUCSpT-35" value="FaseDeBuqueOutbound" style="swimlane;fontStyle=1;align=center;verticalAlign=top;childLayout=stackLayout;horizontal=1;startSize=26;horizontalStack=0;resizeParent=1;resizeParentMax=0;resizeLast=0;collapsible=1;marginBottom=0;whiteSpace=wrap;html=1;" parent="1" vertex="1">
          <mxGeometry x="1948" y="-800" width="240" height="190" as="geometry" />
        </mxCell>
        <mxCell id="vE86NBOg6e0xh6bUCSpT-36" value="+ field: type" style="text;strokeColor=none;fillColor=none;align=left;verticalAlign=top;spacingLeft=4;spacingRight=4;overflow=hidden;rotatable=0;points=[[0,0.5],[1,0.5]];portConstraint=eastwest;whiteSpace=wrap;html=1;" parent="vE86NBOg6e0xh6bUCSpT-35" vertex="1">
          <mxGeometry y="26" width="240" height="26" as="geometry" />
        </mxCell>
        <mxCell id="vE86NBOg6e0xh6bUCSpT-37" value="" style="line;strokeWidth=1;fillColor=none;align=left;verticalAlign=middle;spacingTop=-1;spacingLeft=3;spacingRight=3;rotatable=0;labelPosition=right;points=[];portConstraint=eastwest;strokeColor=inherit;" parent="vE86NBOg6e0xh6bUCSpT-35" vertex="1">
          <mxGeometry y="52" width="240" height="8" as="geometry" />
        </mxCell>
        <mxCell id="e3Tv4PrM7sJhTQVXualJ-16" value="&lt;p style=&quot;border-color: var(--border-color); margin: 0px 0px 0px 4px;&quot;&gt;+ siguienteFase(Buque): FaseDeBuque&lt;br&gt;&lt;/p&gt;" style="text;strokeColor=none;fillColor=none;align=left;verticalAlign=top;spacingLeft=4;spacingRight=4;overflow=hidden;rotatable=0;points=[[0,0.5],[1,0.5]];portConstraint=eastwest;whiteSpace=wrap;html=1;" vertex="1" parent="vE86NBOg6e0xh6bUCSpT-35">
          <mxGeometry y="60" width="240" height="26" as="geometry" />
        </mxCell>
        <mxCell id="e3Tv4PrM7sJhTQVXualJ-17" value="&lt;p style=&quot;border-color: var(--border-color); margin: 0px 0px 0px 4px;&quot;&gt;+ avisarArriboATerminal(Buque): void&lt;br&gt;&lt;/p&gt;" style="text;strokeColor=none;fillColor=none;align=left;verticalAlign=top;spacingLeft=4;spacingRight=4;overflow=hidden;rotatable=0;points=[[0,0.5],[1,0.5]];portConstraint=eastwest;whiteSpace=wrap;html=1;" vertex="1" parent="vE86NBOg6e0xh6bUCSpT-35">
          <mxGeometry y="86" width="240" height="26" as="geometry" />
        </mxCell>
        <mxCell id="e3Tv4PrM7sJhTQVXualJ-18" value="&lt;p style=&quot;border-color: var(--border-color); margin: 0px 0px 0px 4px;&quot;&gt;+ realizarCargaYDescarga(Buque): void&lt;br&gt;&lt;/p&gt;" style="text;strokeColor=none;fillColor=none;align=left;verticalAlign=top;spacingLeft=4;spacingRight=4;overflow=hidden;rotatable=0;points=[[0,0.5],[1,0.5]];portConstraint=eastwest;whiteSpace=wrap;html=1;" vertex="1" parent="vE86NBOg6e0xh6bUCSpT-35">
          <mxGeometry y="112" width="240" height="26" as="geometry" />
        </mxCell>
        <mxCell id="e3Tv4PrM7sJhTQVXualJ-19" value="&lt;p style=&quot;border-color: var(--border-color); margin: 0px 0px 0px 4px;&quot;&gt;+ depart(Buque): void&lt;br&gt;&lt;/p&gt;" style="text;strokeColor=none;fillColor=none;align=left;verticalAlign=top;spacingLeft=4;spacingRight=4;overflow=hidden;rotatable=0;points=[[0,0.5],[1,0.5]];portConstraint=eastwest;whiteSpace=wrap;html=1;" vertex="1" parent="vE86NBOg6e0xh6bUCSpT-35">
          <mxGeometry y="138" width="240" height="26" as="geometry" />
        </mxCell>
        <mxCell id="e3Tv4PrM7sJhTQVXualJ-20" value="&lt;p style=&quot;border-color: var(--border-color); margin: 0px 0px 0px 4px;&quot;&gt;+ avisarPartidaATerminal(Buque): void&lt;br&gt;&lt;/p&gt;" style="text;strokeColor=none;fillColor=none;align=left;verticalAlign=top;spacingLeft=4;spacingRight=4;overflow=hidden;rotatable=0;points=[[0,0.5],[1,0.5]];portConstraint=eastwest;whiteSpace=wrap;html=1;" vertex="1" parent="vE86NBOg6e0xh6bUCSpT-35">
          <mxGeometry y="164" width="240" height="26" as="geometry" />
        </mxCell>
        <mxCell id="vE86NBOg6e0xh6bUCSpT-62" value="&lt;div&gt;Orden&lt;/div&gt;&lt;div&gt;&lt;br&gt;&lt;/div&gt;" style="swimlane;fontStyle=1;align=center;verticalAlign=top;childLayout=stackLayout;horizontal=1;startSize=26;horizontalStack=0;resizeParent=1;resizeParentMax=0;resizeLast=0;collapsible=1;marginBottom=0;whiteSpace=wrap;html=1;" parent="1" vertex="1">
          <mxGeometry x="2240" y="272" width="250" height="174" as="geometry" />
        </mxCell>
        <mxCell id="vE86NBOg6e0xh6bUCSpT-63" value="&lt;div&gt;+ terminal_de_destino: TerminalPortuaria&lt;br&gt;&lt;/div&gt;&lt;div&gt;&lt;span style=&quot;background-color: initial;&quot;&gt;+ circuito_elegido: CircuitoMaritimo&lt;/span&gt;&lt;br&gt;&lt;/div&gt;&lt;div&gt;+ camion_asignado: Camion&lt;/div&gt;&lt;div&gt;+ chofer_asignado: Chofer&lt;/div&gt;&lt;div&gt;+ carga: Container&lt;br&gt;&lt;/div&gt;" style="text;strokeColor=none;fillColor=none;align=left;verticalAlign=top;spacingLeft=4;spacingRight=4;overflow=hidden;rotatable=0;points=[[0,0.5],[1,0.5]];portConstraint=eastwest;whiteSpace=wrap;html=1;" parent="vE86NBOg6e0xh6bUCSpT-62" vertex="1">
          <mxGeometry y="26" width="250" height="114" as="geometry" />
        </mxCell>
        <mxCell id="vE86NBOg6e0xh6bUCSpT-64" value="" style="line;strokeWidth=1;fillColor=none;align=left;verticalAlign=middle;spacingTop=-1;spacingLeft=3;spacingRight=3;rotatable=0;labelPosition=right;points=[];portConstraint=eastwest;strokeColor=inherit;" parent="vE86NBOg6e0xh6bUCSpT-62" vertex="1">
          <mxGeometry y="140" width="250" height="8" as="geometry" />
        </mxCell>
        <mxCell id="vE86NBOg6e0xh6bUCSpT-65" value="+ method(type): type" style="text;strokeColor=none;fillColor=none;align=left;verticalAlign=top;spacingLeft=4;spacingRight=4;overflow=hidden;rotatable=0;points=[[0,0.5],[1,0.5]];portConstraint=eastwest;whiteSpace=wrap;html=1;" parent="vE86NBOg6e0xh6bUCSpT-62" vertex="1">
          <mxGeometry y="148" width="250" height="26" as="geometry" />
        </mxCell>
        <mxCell id="wMsCpwQgi6BDoyRRbQmV-7" value="" style="endArrow=open;endFill=1;endSize=12;html=1;rounded=0;exitX=1;exitY=0.5;exitDx=0;exitDy=0;entryX=0;entryY=0.5;entryDx=0;entryDy=0;edgeStyle=orthogonalEdgeStyle;" parent="1" source="vE86NBOg6e0xh6bUCSpT-23" target="vE86NBOg6e0xh6bUCSpT-19" edge="1">
          <mxGeometry width="160" relative="1" as="geometry">
            <mxPoint x="1370" y="160" as="sourcePoint" />
            <mxPoint x="1530" y="160" as="targetPoint" />
          </mxGeometry>
        </mxCell>
        <mxCell id="wMsCpwQgi6BDoyRRbQmV-8" value="Tramos" style="edgeLabel;html=1;align=center;verticalAlign=middle;resizable=0;points=[];" parent="wMsCpwQgi6BDoyRRbQmV-7" vertex="1" connectable="0">
          <mxGeometry x="-0.5839" y="3" relative="1" as="geometry">
            <mxPoint as="offset" />
          </mxGeometry>
        </mxCell>
        <mxCell id="wMsCpwQgi6BDoyRRbQmV-9" value="&lt;font style=&quot;font-size: 20px;&quot;&gt;*&lt;/font&gt;" style="edgeLabel;html=1;align=center;verticalAlign=middle;resizable=0;points=[];" parent="wMsCpwQgi6BDoyRRbQmV-7" vertex="1" connectable="0">
          <mxGeometry x="0.7742" y="4" relative="1" as="geometry">
            <mxPoint x="-3" y="-1" as="offset" />
          </mxGeometry>
        </mxCell>
        <mxCell id="wMsCpwQgi6BDoyRRbQmV-10" value="" style="endArrow=open;endFill=1;endSize=12;html=1;rounded=0;exitX=1.009;exitY=0.146;exitDx=0;exitDy=0;exitPerimeter=0;entryX=0;entryY=0.5;entryDx=0;entryDy=0;edgeStyle=orthogonalEdgeStyle;" parent="1" source="vE86NBOg6e0xh6bUCSpT-19" target="I0zZV60bpWjbYKbzvoeE-17" edge="1">
          <mxGeometry width="160" relative="1" as="geometry">
            <mxPoint x="1370" y="160" as="sourcePoint" />
            <mxPoint x="1530" y="160" as="targetPoint" />
          </mxGeometry>
        </mxCell>
        <mxCell id="wMsCpwQgi6BDoyRRbQmV-13" value="origen" style="edgeLabel;html=1;align=center;verticalAlign=middle;resizable=0;points=[];" parent="wMsCpwQgi6BDoyRRbQmV-10" vertex="1" connectable="0">
          <mxGeometry x="-0.8037" y="2" relative="1" as="geometry">
            <mxPoint as="offset" />
          </mxGeometry>
        </mxCell>
        <mxCell id="wMsCpwQgi6BDoyRRbQmV-12" value="" style="endArrow=open;endFill=1;endSize=12;html=1;rounded=0;exitX=1;exitY=0.5;exitDx=0;exitDy=0;entryX=0;entryY=0.5;entryDx=0;entryDy=0;edgeStyle=orthogonalEdgeStyle;" parent="1" source="vE86NBOg6e0xh6bUCSpT-19" target="I0zZV60bpWjbYKbzvoeE-17" edge="1">
          <mxGeometry width="160" relative="1" as="geometry">
            <mxPoint x="1370" y="160" as="sourcePoint" />
            <mxPoint x="1530" y="160" as="targetPoint" />
          </mxGeometry>
        </mxCell>
        <mxCell id="wMsCpwQgi6BDoyRRbQmV-14" value="destino" style="edgeLabel;html=1;align=center;verticalAlign=middle;resizable=0;points=[];" parent="wMsCpwQgi6BDoyRRbQmV-12" vertex="1" connectable="0">
          <mxGeometry x="-0.8055" y="4" relative="1" as="geometry">
            <mxPoint x="1" as="offset" />
          </mxGeometry>
        </mxCell>
        <mxCell id="wMsCpwQgi6BDoyRRbQmV-15" value="&lt;font style=&quot;font-size: 20px;&quot;&gt;1&lt;/font&gt;" style="edgeLabel;html=1;align=center;verticalAlign=middle;resizable=0;points=[];" parent="wMsCpwQgi6BDoyRRbQmV-12" vertex="1" connectable="0">
          <mxGeometry x="0.8489" y="2" relative="1" as="geometry">
            <mxPoint x="-4" y="-7" as="offset" />
          </mxGeometry>
        </mxCell>
        <mxCell id="wMsCpwQgi6BDoyRRbQmV-17" style="edgeStyle=orthogonalEdgeStyle;rounded=0;orthogonalLoop=1;jettySize=auto;html=1;exitX=1;exitY=0.5;exitDx=0;exitDy=0;entryX=0;entryY=0.5;entryDx=0;entryDy=0;" parent="1" source="ABUvw_rNZOJrgvvg1hrZ-5" target="vE86NBOg6e0xh6bUCSpT-23" edge="1">
          <mxGeometry relative="1" as="geometry" />
        </mxCell>
        <mxCell id="wMsCpwQgi6BDoyRRbQmV-18" value="circuitos" style="edgeLabel;html=1;align=center;verticalAlign=middle;resizable=0;points=[];" parent="wMsCpwQgi6BDoyRRbQmV-17" vertex="1" connectable="0">
          <mxGeometry x="-0.8073" relative="1" as="geometry">
            <mxPoint x="8" y="-7" as="offset" />
          </mxGeometry>
        </mxCell>
        <mxCell id="wMsCpwQgi6BDoyRRbQmV-19" value="&lt;font style=&quot;font-size: 20px;&quot;&gt;*&lt;/font&gt;" style="edgeLabel;html=1;align=center;verticalAlign=middle;resizable=0;points=[];" parent="wMsCpwQgi6BDoyRRbQmV-17" vertex="1" connectable="0">
          <mxGeometry x="0.8216" y="2" relative="1" as="geometry">
            <mxPoint x="-3" y="-2" as="offset" />
          </mxGeometry>
        </mxCell>
        <mxCell id="wMsCpwQgi6BDoyRRbQmV-20" value="Buscador" style="swimlane;fontStyle=1;align=center;verticalAlign=top;childLayout=stackLayout;horizontal=1;startSize=26;horizontalStack=0;resizeParent=1;resizeParentMax=0;resizeLast=0;collapsible=1;marginBottom=0;whiteSpace=wrap;html=1;" parent="1" vertex="1">
          <mxGeometry x="2070" y="783" width="160" height="86" as="geometry" />
        </mxCell>
        <mxCell id="wMsCpwQgi6BDoyRRbQmV-21" value="+ naviera" style="text;strokeColor=none;fillColor=none;align=left;verticalAlign=top;spacingLeft=4;spacingRight=4;overflow=hidden;rotatable=0;points=[[0,0.5],[1,0.5]];portConstraint=eastwest;whiteSpace=wrap;html=1;" parent="wMsCpwQgi6BDoyRRbQmV-20" vertex="1">
          <mxGeometry y="26" width="160" height="26" as="geometry" />
        </mxCell>
        <mxCell id="wMsCpwQgi6BDoyRRbQmV-22" value="" style="line;strokeWidth=1;fillColor=none;align=left;verticalAlign=middle;spacingTop=-1;spacingLeft=3;spacingRight=3;rotatable=0;labelPosition=right;points=[];portConstraint=eastwest;strokeColor=inherit;" parent="wMsCpwQgi6BDoyRRbQmV-20" vertex="1">
          <mxGeometry y="52" width="160" height="8" as="geometry" />
        </mxCell>
        <mxCell id="wMsCpwQgi6BDoyRRbQmV-23" value="+ buscar(filtro)" style="text;strokeColor=none;fillColor=none;align=left;verticalAlign=top;spacingLeft=4;spacingRight=4;overflow=hidden;rotatable=0;points=[[0,0.5],[1,0.5]];portConstraint=eastwest;whiteSpace=wrap;html=1;" parent="wMsCpwQgi6BDoyRRbQmV-20" vertex="1">
          <mxGeometry y="60" width="160" height="26" as="geometry" />
        </mxCell>
        <mxCell id="wMsCpwQgi6BDoyRRbQmV-25" value="CriterioCircuito" style="swimlane;fontStyle=1;align=center;verticalAlign=top;childLayout=stackLayout;horizontal=1;startSize=26;horizontalStack=0;resizeParent=1;resizeParentMax=0;resizeLast=0;collapsible=1;marginBottom=0;whiteSpace=wrap;html=1;" parent="1" vertex="1">
          <mxGeometry x="1640" y="720" width="190" height="86" as="geometry" />
        </mxCell>
        <mxCell id="wMsCpwQgi6BDoyRRbQmV-26" value="&lt;div&gt;- Comparator(CircuitoMaritimo)&lt;/div&gt;&lt;div&gt;&lt;br&gt;&lt;/div&gt;" style="text;strokeColor=none;fillColor=none;align=left;verticalAlign=top;spacingLeft=4;spacingRight=4;overflow=hidden;rotatable=0;points=[[0,0.5],[1,0.5]];portConstraint=eastwest;whiteSpace=wrap;html=1;" parent="wMsCpwQgi6BDoyRRbQmV-25" vertex="1">
          <mxGeometry y="26" width="190" height="26" as="geometry" />
        </mxCell>
        <mxCell id="wMsCpwQgi6BDoyRRbQmV-27" value="" style="line;strokeWidth=1;fillColor=none;align=left;verticalAlign=middle;spacingTop=-1;spacingLeft=3;spacingRight=3;rotatable=0;labelPosition=right;points=[];portConstraint=eastwest;strokeColor=inherit;" parent="wMsCpwQgi6BDoyRRbQmV-25" vertex="1">
          <mxGeometry y="52" width="190" height="8" as="geometry" />
        </mxCell>
        <mxCell id="wMsCpwQgi6BDoyRRbQmV-28" value="+ buscar(List&amp;lt;CircuitoMaritimo&amp;gt;)" style="text;strokeColor=none;fillColor=none;align=left;verticalAlign=top;spacingLeft=4;spacingRight=4;overflow=hidden;rotatable=0;points=[[0,0.5],[1,0.5]];portConstraint=eastwest;whiteSpace=wrap;html=1;" parent="wMsCpwQgi6BDoyRRbQmV-25" vertex="1">
          <mxGeometry y="60" width="190" height="26" as="geometry" />
        </mxCell>
        <mxCell id="wMsCpwQgi6BDoyRRbQmV-29" value="CriterioCircuitoMenorTiempo" style="swimlane;fontStyle=1;align=center;verticalAlign=top;childLayout=stackLayout;horizontal=1;startSize=26;horizontalStack=0;resizeParent=1;resizeParentMax=0;resizeLast=0;collapsible=1;marginBottom=0;whiteSpace=wrap;html=1;" parent="1" vertex="1">
          <mxGeometry x="1440" y="903" width="190" height="52" as="geometry" />
        </mxCell>
        <mxCell id="wMsCpwQgi6BDoyRRbQmV-32" value="+ buscar(List&amp;lt;CircuitoMaritimo&amp;gt;)" style="text;strokeColor=none;fillColor=none;align=left;verticalAlign=top;spacingLeft=4;spacingRight=4;overflow=hidden;rotatable=0;points=[[0,0.5],[1,0.5]];portConstraint=eastwest;whiteSpace=wrap;html=1;" parent="wMsCpwQgi6BDoyRRbQmV-29" vertex="1">
          <mxGeometry y="26" width="190" height="26" as="geometry" />
        </mxCell>
        <mxCell id="wMsCpwQgi6BDoyRRbQmV-33" value="CriterioCircuitoMenorPrecio" style="swimlane;fontStyle=1;align=center;verticalAlign=top;childLayout=stackLayout;horizontal=1;startSize=26;horizontalStack=0;resizeParent=1;resizeParentMax=0;resizeLast=0;collapsible=1;marginBottom=0;whiteSpace=wrap;html=1;" parent="1" vertex="1">
          <mxGeometry x="1640" y="903" width="190" height="52" as="geometry" />
        </mxCell>
        <mxCell id="wMsCpwQgi6BDoyRRbQmV-36" value="+ buscar(List&amp;lt;CircuitoMaritimo&amp;gt;)" style="text;strokeColor=none;fillColor=none;align=left;verticalAlign=top;spacingLeft=4;spacingRight=4;overflow=hidden;rotatable=0;points=[[0,0.5],[1,0.5]];portConstraint=eastwest;whiteSpace=wrap;html=1;" parent="wMsCpwQgi6BDoyRRbQmV-33" vertex="1">
          <mxGeometry y="26" width="190" height="26" as="geometry" />
        </mxCell>
        <mxCell id="wMsCpwQgi6BDoyRRbQmV-37" value="CriterioCircuitoMenorNroDeTramos" style="swimlane;fontStyle=1;align=center;verticalAlign=top;childLayout=stackLayout;horizontal=1;startSize=26;horizontalStack=0;resizeParent=1;resizeParentMax=0;resizeLast=0;collapsible=1;marginBottom=0;whiteSpace=wrap;html=1;" parent="1" vertex="1">
          <mxGeometry x="1840" y="903" width="220" height="52" as="geometry" />
        </mxCell>
        <mxCell id="wMsCpwQgi6BDoyRRbQmV-40" value="+ buscar(List&amp;lt;CircuitoMaritimo&amp;gt;)" style="text;strokeColor=none;fillColor=none;align=left;verticalAlign=top;spacingLeft=4;spacingRight=4;overflow=hidden;rotatable=0;points=[[0,0.5],[1,0.5]];portConstraint=eastwest;whiteSpace=wrap;html=1;" parent="wMsCpwQgi6BDoyRRbQmV-37" vertex="1">
          <mxGeometry y="26" width="220" height="26" as="geometry" />
        </mxCell>
        <mxCell id="wMsCpwQgi6BDoyRRbQmV-47" value="&lt;p style=&quot;margin:0px;margin-top:4px;text-align:center;&quot;&gt;&lt;i&gt;&amp;lt;&amp;lt;Interface&amp;gt;&amp;gt;&lt;/i&gt;&lt;/p&gt;&lt;p style=&quot;margin:0px;margin-top:4px;text-align:center;&quot;&gt;&lt;i&gt;&lt;b&gt;FaseDeBuque&lt;/b&gt;&lt;/i&gt;&lt;/p&gt;&lt;hr size=&quot;1&quot;&gt;&lt;p style=&quot;margin:0px;margin-left:4px;&quot;&gt;+ siguienteFase(Buque): FaseDeBuque&lt;/p&gt;&lt;p style=&quot;margin:0px;margin-left:4px;&quot;&gt;+ avisarArriboATerminal(Buque): void&lt;br&gt;+ realizarCargaYDescarga(Buque): void&lt;br&gt;+ depart(Buque): void&lt;br&gt;+ avisarPartidaATerminal(Buque): void&lt;/p&gt;" style="verticalAlign=top;align=left;overflow=fill;fontSize=12;fontFamily=Helvetica;html=1;whiteSpace=wrap;" parent="1" vertex="1">
          <mxGeometry x="2480" y="-528" width="280" height="130" as="geometry" />
        </mxCell>
        <mxCell id="wMsCpwQgi6BDoyRRbQmV-61" style="edgeStyle=orthogonalEdgeStyle;rounded=0;orthogonalLoop=1;jettySize=auto;html=1;entryX=0.502;entryY=1.007;entryDx=0;entryDy=0;entryPerimeter=0;" parent="1" source="wMsCpwQgi6BDoyRRbQmV-33" target="wMsCpwQgi6BDoyRRbQmV-28" edge="1">
          <mxGeometry relative="1" as="geometry" />
        </mxCell>
        <mxCell id="wMsCpwQgi6BDoyRRbQmV-62" style="edgeStyle=orthogonalEdgeStyle;rounded=0;orthogonalLoop=1;jettySize=auto;html=1;entryX=0.502;entryY=1.084;entryDx=0;entryDy=0;entryPerimeter=0;exitX=0.5;exitY=0;exitDx=0;exitDy=0;" parent="1" source="wMsCpwQgi6BDoyRRbQmV-37" target="wMsCpwQgi6BDoyRRbQmV-28" edge="1">
          <mxGeometry relative="1" as="geometry">
            <Array as="points">
              <mxPoint x="1950" y="860" />
              <mxPoint x="1735" y="860" />
            </Array>
            <mxPoint x="1960" y="870" as="sourcePoint" />
          </mxGeometry>
        </mxCell>
        <mxCell id="wMsCpwQgi6BDoyRRbQmV-63" style="edgeStyle=orthogonalEdgeStyle;rounded=0;orthogonalLoop=1;jettySize=auto;html=1;entryX=0.498;entryY=1.032;entryDx=0;entryDy=0;entryPerimeter=0;" parent="1" source="wMsCpwQgi6BDoyRRbQmV-29" target="wMsCpwQgi6BDoyRRbQmV-28" edge="1">
          <mxGeometry relative="1" as="geometry" />
        </mxCell>
        <mxCell id="wMsCpwQgi6BDoyRRbQmV-65" style="edgeStyle=orthogonalEdgeStyle;rounded=0;orthogonalLoop=1;jettySize=auto;html=1;entryX=0.495;entryY=1.038;entryDx=0;entryDy=0;entryPerimeter=0;" parent="1" source="I0zZV60bpWjbYKbzvoeE-38" target="I0zZV60bpWjbYKbzvoeE-33" edge="1">
          <mxGeometry relative="1" as="geometry" />
        </mxCell>
        <mxCell id="v_qziSdxNHRrXzCHgyad-48" value="Text" style="edgeLabel;html=1;align=center;verticalAlign=middle;resizable=0;points=[];" parent="wMsCpwQgi6BDoyRRbQmV-65" vertex="1" connectable="0">
          <mxGeometry x="-0.3104" y="-3" relative="1" as="geometry">
            <mxPoint as="offset" />
          </mxGeometry>
        </mxCell>
        <mxCell id="wMsCpwQgi6BDoyRRbQmV-66" style="edgeStyle=orthogonalEdgeStyle;rounded=0;orthogonalLoop=1;jettySize=auto;html=1;entryX=0.495;entryY=1.038;entryDx=0;entryDy=0;entryPerimeter=0;" parent="1" source="I0zZV60bpWjbYKbzvoeE-42" target="I0zZV60bpWjbYKbzvoeE-33" edge="1">
          <mxGeometry relative="1" as="geometry" />
        </mxCell>
        <mxCell id="wMsCpwQgi6BDoyRRbQmV-68" style="edgeStyle=orthogonalEdgeStyle;rounded=0;orthogonalLoop=1;jettySize=auto;html=1;entryX=0.495;entryY=1.013;entryDx=0;entryDy=0;entryPerimeter=0;" parent="1" source="I0zZV60bpWjbYKbzvoeE-34" target="I0zZV60bpWjbYKbzvoeE-33" edge="1">
          <mxGeometry relative="1" as="geometry" />
        </mxCell>
        <mxCell id="wMsCpwQgi6BDoyRRbQmV-71" value="Viaje" style="swimlane;fontStyle=1;align=center;verticalAlign=top;childLayout=stackLayout;horizontal=1;startSize=26;horizontalStack=0;resizeParent=1;resizeParentMax=0;resizeLast=0;collapsible=1;marginBottom=0;whiteSpace=wrap;html=1;" parent="1" vertex="1">
          <mxGeometry x="1320" y="-170" width="160" height="114" as="geometry" />
        </mxCell>
        <mxCell id="wMsCpwQgi6BDoyRRbQmV-72" value="+ circuito: CircuitoMaritimo&lt;br&gt;+ buque: Buque&lt;br&gt;+ fecha_de_salida: Date" style="text;strokeColor=none;fillColor=none;align=left;verticalAlign=top;spacingLeft=4;spacingRight=4;overflow=hidden;rotatable=0;points=[[0,0.5],[1,0.5]];portConstraint=eastwest;whiteSpace=wrap;html=1;" parent="wMsCpwQgi6BDoyRRbQmV-71" vertex="1">
          <mxGeometry y="26" width="160" height="54" as="geometry" />
        </mxCell>
        <mxCell id="wMsCpwQgi6BDoyRRbQmV-73" value="" style="line;strokeWidth=1;fillColor=none;align=left;verticalAlign=middle;spacingTop=-1;spacingLeft=3;spacingRight=3;rotatable=0;labelPosition=right;points=[];portConstraint=eastwest;strokeColor=inherit;" parent="wMsCpwQgi6BDoyRRbQmV-71" vertex="1">
          <mxGeometry y="80" width="160" height="8" as="geometry" />
        </mxCell>
        <mxCell id="wMsCpwQgi6BDoyRRbQmV-74" value="+ method(type): type" style="text;strokeColor=none;fillColor=none;align=left;verticalAlign=top;spacingLeft=4;spacingRight=4;overflow=hidden;rotatable=0;points=[[0,0.5],[1,0.5]];portConstraint=eastwest;whiteSpace=wrap;html=1;" parent="wMsCpwQgi6BDoyRRbQmV-71" vertex="1">
          <mxGeometry y="88" width="160" height="26" as="geometry" />
        </mxCell>
        <mxCell id="wMsCpwQgi6BDoyRRbQmV-77" style="edgeStyle=orthogonalEdgeStyle;rounded=0;orthogonalLoop=1;jettySize=auto;html=1;exitX=1;exitY=0.5;exitDx=0;exitDy=0;entryX=0;entryY=0.25;entryDx=0;entryDy=0;" parent="1" source="ABUvw_rNZOJrgvvg1hrZ-2" target="wMsCpwQgi6BDoyRRbQmV-71" edge="1">
          <mxGeometry relative="1" as="geometry" />
        </mxCell>
        <mxCell id="wMsCpwQgi6BDoyRRbQmV-78" value="viajes" style="edgeLabel;html=1;align=center;verticalAlign=middle;resizable=0;points=[];" parent="wMsCpwQgi6BDoyRRbQmV-77" connectable="0" vertex="1">
          <mxGeometry x="-0.9254" y="2" relative="1" as="geometry">
            <mxPoint x="10" y="-6" as="offset" />
          </mxGeometry>
        </mxCell>
        <mxCell id="v_qziSdxNHRrXzCHgyad-1" value="&lt;p style=&quot;margin:0px;margin-top:4px;text-align:center;&quot;&gt;&lt;i&gt;&amp;lt;&amp;lt;Interface&amp;gt;&amp;gt;&lt;/i&gt;&lt;/p&gt;&lt;p style=&quot;margin:0px;margin-top:4px;text-align:center;&quot;&gt;&lt;i&gt;&lt;b&gt;Servicio&lt;/b&gt;&lt;/i&gt;&lt;/p&gt;&lt;hr size=&quot;1&quot;&gt;&lt;p style=&quot;margin:0px;margin-left:4px;&quot;&gt;+ costo():int&lt;br&gt;&lt;/p&gt;" style="verticalAlign=top;align=left;overflow=fill;fontSize=12;fontFamily=Helvetica;html=1;whiteSpace=wrap;" parent="1" vertex="1">
          <mxGeometry x="427" y="-960" width="190" height="87" as="geometry" />
        </mxCell>
        <mxCell id="v_qziSdxNHRrXzCHgyad-41" style="edgeStyle=orthogonalEdgeStyle;rounded=0;orthogonalLoop=1;jettySize=auto;html=1;exitX=1;exitY=0.25;exitDx=0;exitDy=0;entryX=0;entryY=1;entryDx=0;entryDy=0;" parent="1" source="v_qziSdxNHRrXzCHgyad-14" target="v_qziSdxNHRrXzCHgyad-1" edge="1">
          <mxGeometry relative="1" as="geometry" />
        </mxCell>
        <mxCell id="v_qziSdxNHRrXzCHgyad-14" value="Lavado" style="swimlane;fontStyle=1;align=center;verticalAlign=top;childLayout=stackLayout;horizontal=1;startSize=26;horizontalStack=0;resizeParent=1;resizeParentMax=0;resizeLast=0;collapsible=1;marginBottom=0;whiteSpace=wrap;html=1;" parent="1" vertex="1">
          <mxGeometry x="190" y="-820" width="160" height="52" as="geometry" />
        </mxCell>
        <mxCell id="v_qziSdxNHRrXzCHgyad-17" value="+ costo(): int" style="text;strokeColor=none;fillColor=none;align=left;verticalAlign=top;spacingLeft=4;spacingRight=4;overflow=hidden;rotatable=0;points=[[0,0.5],[1,0.5]];portConstraint=eastwest;whiteSpace=wrap;html=1;" parent="v_qziSdxNHRrXzCHgyad-14" vertex="1">
          <mxGeometry y="26" width="160" height="26" as="geometry" />
        </mxCell>
        <mxCell id="v_qziSdxNHRrXzCHgyad-42" style="edgeStyle=orthogonalEdgeStyle;rounded=0;orthogonalLoop=1;jettySize=auto;html=1;exitX=0;exitY=0.25;exitDx=0;exitDy=0;entryX=1;entryY=1;entryDx=0;entryDy=0;" parent="1" source="v_qziSdxNHRrXzCHgyad-22" target="v_qziSdxNHRrXzCHgyad-1" edge="1">
          <mxGeometry relative="1" as="geometry" />
        </mxCell>
        <mxCell id="v_qziSdxNHRrXzCHgyad-22" value="Almacenamiento" style="swimlane;fontStyle=1;align=center;verticalAlign=top;childLayout=stackLayout;horizontal=1;startSize=26;horizontalStack=0;resizeParent=1;resizeParentMax=0;resizeLast=0;collapsible=1;marginBottom=0;whiteSpace=wrap;html=1;" parent="1" vertex="1">
          <mxGeometry x="707" y="-820" width="160" height="94" as="geometry" />
        </mxCell>
        <mxCell id="v_qziSdxNHRrXzCHgyad-23" value="&lt;div&gt;- cantDias : int&lt;/div&gt;&lt;div&gt;-costoDia: int&lt;br&gt;&lt;/div&gt;" style="text;strokeColor=none;fillColor=none;align=left;verticalAlign=top;spacingLeft=4;spacingRight=4;overflow=hidden;rotatable=0;points=[[0,0.5],[1,0.5]];portConstraint=eastwest;whiteSpace=wrap;html=1;" parent="v_qziSdxNHRrXzCHgyad-22" vertex="1">
          <mxGeometry y="26" width="160" height="34" as="geometry" />
        </mxCell>
        <mxCell id="v_qziSdxNHRrXzCHgyad-24" value="" style="line;strokeWidth=1;fillColor=none;align=left;verticalAlign=middle;spacingTop=-1;spacingLeft=3;spacingRight=3;rotatable=0;labelPosition=right;points=[];portConstraint=eastwest;strokeColor=inherit;" parent="v_qziSdxNHRrXzCHgyad-22" vertex="1">
          <mxGeometry y="60" width="160" height="8" as="geometry" />
        </mxCell>
        <mxCell id="v_qziSdxNHRrXzCHgyad-25" value="+ costo() : int" style="text;strokeColor=none;fillColor=none;align=left;verticalAlign=top;spacingLeft=4;spacingRight=4;overflow=hidden;rotatable=0;points=[[0,0.5],[1,0.5]];portConstraint=eastwest;whiteSpace=wrap;html=1;" parent="v_qziSdxNHRrXzCHgyad-22" vertex="1">
          <mxGeometry y="68" width="160" height="26" as="geometry" />
        </mxCell>
        <mxCell id="v_qziSdxNHRrXzCHgyad-40" style="edgeStyle=orthogonalEdgeStyle;rounded=0;orthogonalLoop=1;jettySize=auto;html=1;exitX=0.5;exitY=0;exitDx=0;exitDy=0;entryX=0.25;entryY=1;entryDx=0;entryDy=0;" parent="1" source="v_qziSdxNHRrXzCHgyad-26" target="v_qziSdxNHRrXzCHgyad-1" edge="1">
          <mxGeometry relative="1" as="geometry" />
        </mxCell>
        <mxCell id="v_qziSdxNHRrXzCHgyad-26" value="Electricidad" style="swimlane;fontStyle=1;align=center;verticalAlign=top;childLayout=stackLayout;horizontal=1;startSize=26;horizontalStack=0;resizeParent=1;resizeParentMax=0;resizeLast=0;collapsible=1;marginBottom=0;whiteSpace=wrap;html=1;" parent="1" vertex="1">
          <mxGeometry x="350" y="-710" width="160" height="106" as="geometry" />
        </mxCell>
        <mxCell id="v_qziSdxNHRrXzCHgyad-27" value="&lt;div&gt;- horaInicio : date&lt;/div&gt;&lt;div&gt;- horaFin : date&lt;br&gt;&lt;/div&gt;&lt;div&gt;- costoKW: int&lt;br&gt;&lt;/div&gt;" style="text;strokeColor=none;fillColor=none;align=left;verticalAlign=top;spacingLeft=4;spacingRight=4;overflow=hidden;rotatable=0;points=[[0,0.5],[1,0.5]];portConstraint=eastwest;whiteSpace=wrap;html=1;" parent="v_qziSdxNHRrXzCHgyad-26" vertex="1">
          <mxGeometry y="26" width="160" height="54" as="geometry" />
        </mxCell>
        <mxCell id="v_qziSdxNHRrXzCHgyad-29" value="+ costo() : int" style="text;strokeColor=none;fillColor=none;align=left;verticalAlign=top;spacingLeft=4;spacingRight=4;overflow=hidden;rotatable=0;points=[[0,0.5],[1,0.5]];portConstraint=eastwest;whiteSpace=wrap;html=1;" parent="v_qziSdxNHRrXzCHgyad-26" vertex="1">
          <mxGeometry y="80" width="160" height="26" as="geometry" />
        </mxCell>
        <mxCell id="v_qziSdxNHRrXzCHgyad-43" style="edgeStyle=orthogonalEdgeStyle;rounded=0;orthogonalLoop=1;jettySize=auto;html=1;exitX=0.5;exitY=0;exitDx=0;exitDy=0;entryX=0.75;entryY=1;entryDx=0;entryDy=0;" parent="1" source="v_qziSdxNHRrXzCHgyad-30" target="v_qziSdxNHRrXzCHgyad-1" edge="1">
          <mxGeometry relative="1" as="geometry" />
        </mxCell>
        <mxCell id="v_qziSdxNHRrXzCHgyad-30" value="Pesado" style="swimlane;fontStyle=1;align=center;verticalAlign=top;childLayout=stackLayout;horizontal=1;startSize=26;horizontalStack=0;resizeParent=1;resizeParentMax=0;resizeLast=0;collapsible=1;marginBottom=0;whiteSpace=wrap;html=1;" parent="1" vertex="1">
          <mxGeometry x="547" y="-710" width="160" height="52" as="geometry" />
        </mxCell>
        <mxCell id="v_qziSdxNHRrXzCHgyad-33" value="+ costo() : int" style="text;strokeColor=none;fillColor=none;align=left;verticalAlign=top;spacingLeft=4;spacingRight=4;overflow=hidden;rotatable=0;points=[[0,0.5],[1,0.5]];portConstraint=eastwest;whiteSpace=wrap;html=1;" parent="v_qziSdxNHRrXzCHgyad-30" vertex="1">
          <mxGeometry y="26" width="160" height="26" as="geometry" />
        </mxCell>
        <mxCell id="v_qziSdxNHRrXzCHgyad-49" value="Conductor" style="swimlane;fontStyle=1;align=center;verticalAlign=top;childLayout=stackLayout;horizontal=1;startSize=26;horizontalStack=0;resizeParent=1;resizeParentMax=0;resizeLast=0;collapsible=1;marginBottom=0;whiteSpace=wrap;html=1;" parent="1" vertex="1">
          <mxGeometry x="840" y="-200" width="160" height="86" as="geometry" />
        </mxCell>
        <mxCell id="v_qziSdxNHRrXzCHgyad-52" value="" style="line;strokeWidth=1;fillColor=none;align=left;verticalAlign=middle;spacingTop=-1;spacingLeft=3;spacingRight=3;rotatable=0;labelPosition=right;points=[];portConstraint=eastwest;strokeColor=inherit;" parent="v_qziSdxNHRrXzCHgyad-49" vertex="1">
          <mxGeometry y="26" width="160" height="8" as="geometry" />
        </mxCell>
        <mxCell id="v_qziSdxNHRrXzCHgyad-53" value="+ new(Camion): Conductor" style="text;strokeColor=none;fillColor=none;align=left;verticalAlign=top;spacingLeft=4;spacingRight=4;overflow=hidden;rotatable=0;points=[[0,0.5],[1,0.5]];portConstraint=eastwest;whiteSpace=wrap;html=1;" parent="v_qziSdxNHRrXzCHgyad-49" vertex="1">
          <mxGeometry y="34" width="160" height="26" as="geometry" />
        </mxCell>
        <mxCell id="LPZ_iTTPC1OW5Bad9vyf-10" value="+ getCamion(): Camion" style="text;strokeColor=none;fillColor=none;align=left;verticalAlign=top;spacingLeft=4;spacingRight=4;overflow=hidden;rotatable=0;points=[[0,0.5],[1,0.5]];portConstraint=eastwest;whiteSpace=wrap;html=1;" parent="v_qziSdxNHRrXzCHgyad-49" vertex="1">
          <mxGeometry y="60" width="160" height="26" as="geometry" />
        </mxCell>
        <mxCell id="5zhQQYnLI66ePEPqatI0-5" style="edgeStyle=orthogonalEdgeStyle;rounded=0;orthogonalLoop=1;jettySize=auto;html=1;exitX=0.75;exitY=0;exitDx=0;exitDy=0;entryX=0.256;entryY=1.038;entryDx=0;entryDy=0;entryPerimeter=0;endArrow=block;endFill=0;" parent="1" source="xL51eRAqZsQXDMl_Cjis-1" target="vE86NBOg6e0xh6bUCSpT-65" edge="1">
          <mxGeometry relative="1" as="geometry" />
        </mxCell>
        <mxCell id="xL51eRAqZsQXDMl_Cjis-1" value="&lt;div&gt;OrdenDeExportacion&lt;/div&gt;&lt;div&gt;&lt;br&gt;&lt;/div&gt;" style="swimlane;fontStyle=1;align=center;verticalAlign=top;childLayout=stackLayout;horizontal=1;startSize=26;horizontalStack=0;resizeParent=1;resizeParentMax=0;resizeLast=0;collapsible=1;marginBottom=0;whiteSpace=wrap;html=1;" parent="1" vertex="1">
          <mxGeometry x="2120" y="512" width="160" height="86" as="geometry" />
        </mxCell>
        <mxCell id="xL51eRAqZsQXDMl_Cjis-2" value="+ shipper: Shipper" style="text;strokeColor=none;fillColor=none;align=left;verticalAlign=top;spacingLeft=4;spacingRight=4;overflow=hidden;rotatable=0;points=[[0,0.5],[1,0.5]];portConstraint=eastwest;whiteSpace=wrap;html=1;" parent="xL51eRAqZsQXDMl_Cjis-1" vertex="1">
          <mxGeometry y="26" width="160" height="26" as="geometry" />
        </mxCell>
        <mxCell id="xL51eRAqZsQXDMl_Cjis-3" value="" style="line;strokeWidth=1;fillColor=none;align=left;verticalAlign=middle;spacingTop=-1;spacingLeft=3;spacingRight=3;rotatable=0;labelPosition=right;points=[];portConstraint=eastwest;strokeColor=inherit;" parent="xL51eRAqZsQXDMl_Cjis-1" vertex="1">
          <mxGeometry y="52" width="160" height="8" as="geometry" />
        </mxCell>
        <mxCell id="xL51eRAqZsQXDMl_Cjis-4" value="+ method(type): type" style="text;strokeColor=none;fillColor=none;align=left;verticalAlign=top;spacingLeft=4;spacingRight=4;overflow=hidden;rotatable=0;points=[[0,0.5],[1,0.5]];portConstraint=eastwest;whiteSpace=wrap;html=1;" parent="xL51eRAqZsQXDMl_Cjis-1" vertex="1">
          <mxGeometry y="60" width="160" height="26" as="geometry" />
        </mxCell>
        <mxCell id="5zhQQYnLI66ePEPqatI0-6" style="edgeStyle=orthogonalEdgeStyle;rounded=0;orthogonalLoop=1;jettySize=auto;html=1;exitX=0.25;exitY=0;exitDx=0;exitDy=0;entryX=0.688;entryY=0.962;entryDx=0;entryDy=0;entryPerimeter=0;endArrow=block;endFill=0;" parent="1" source="xL51eRAqZsQXDMl_Cjis-5" target="vE86NBOg6e0xh6bUCSpT-65" edge="1">
          <mxGeometry relative="1" as="geometry" />
        </mxCell>
        <mxCell id="xL51eRAqZsQXDMl_Cjis-5" value="&lt;div&gt;OrdenDeImportacion&lt;/div&gt;" style="swimlane;fontStyle=1;align=center;verticalAlign=top;childLayout=stackLayout;horizontal=1;startSize=26;horizontalStack=0;resizeParent=1;resizeParentMax=0;resizeLast=0;collapsible=1;marginBottom=0;whiteSpace=wrap;html=1;" parent="1" vertex="1">
          <mxGeometry x="2430" y="512" width="160" height="86" as="geometry" />
        </mxCell>
        <mxCell id="xL51eRAqZsQXDMl_Cjis-6" value="+ consignee: Consignee" style="text;strokeColor=none;fillColor=none;align=left;verticalAlign=top;spacingLeft=4;spacingRight=4;overflow=hidden;rotatable=0;points=[[0,0.5],[1,0.5]];portConstraint=eastwest;whiteSpace=wrap;html=1;" parent="xL51eRAqZsQXDMl_Cjis-5" vertex="1">
          <mxGeometry y="26" width="160" height="26" as="geometry" />
        </mxCell>
        <mxCell id="xL51eRAqZsQXDMl_Cjis-7" value="" style="line;strokeWidth=1;fillColor=none;align=left;verticalAlign=middle;spacingTop=-1;spacingLeft=3;spacingRight=3;rotatable=0;labelPosition=right;points=[];portConstraint=eastwest;strokeColor=inherit;" parent="xL51eRAqZsQXDMl_Cjis-5" vertex="1">
          <mxGeometry y="52" width="160" height="8" as="geometry" />
        </mxCell>
        <mxCell id="xL51eRAqZsQXDMl_Cjis-8" value="+ method(type): type" style="text;strokeColor=none;fillColor=none;align=left;verticalAlign=top;spacingLeft=4;spacingRight=4;overflow=hidden;rotatable=0;points=[[0,0.5],[1,0.5]];portConstraint=eastwest;whiteSpace=wrap;html=1;" parent="xL51eRAqZsQXDMl_Cjis-5" vertex="1">
          <mxGeometry y="60" width="160" height="26" as="geometry" />
        </mxCell>
        <mxCell id="v_qziSdxNHRrXzCHgyad-55" value="ContainerReefer" style="swimlane;fontStyle=1;align=center;verticalAlign=top;childLayout=stackLayout;horizontal=1;startSize=26;horizontalStack=0;resizeParent=1;resizeParentMax=0;resizeLast=0;collapsible=1;marginBottom=0;whiteSpace=wrap;html=1;" parent="1" vertex="1">
          <mxGeometry x="1424" y="-760" width="160" height="86" as="geometry" />
        </mxCell>
        <mxCell id="v_qziSdxNHRrXzCHgyad-56" value="+kwHora: int" style="text;strokeColor=none;fillColor=none;align=left;verticalAlign=top;spacingLeft=4;spacingRight=4;overflow=hidden;rotatable=0;points=[[0,0.5],[1,0.5]];portConstraint=eastwest;whiteSpace=wrap;html=1;" parent="v_qziSdxNHRrXzCHgyad-55" vertex="1">
          <mxGeometry y="26" width="160" height="26" as="geometry" />
        </mxCell>
        <mxCell id="v_qziSdxNHRrXzCHgyad-57" value="" style="line;strokeWidth=1;fillColor=none;align=left;verticalAlign=middle;spacingTop=-1;spacingLeft=3;spacingRight=3;rotatable=0;labelPosition=right;points=[];portConstraint=eastwest;strokeColor=inherit;" parent="v_qziSdxNHRrXzCHgyad-55" vertex="1">
          <mxGeometry y="52" width="160" height="8" as="geometry" />
        </mxCell>
        <mxCell id="v_qziSdxNHRrXzCHgyad-58" value="+ consumoPorHora(): int" style="text;strokeColor=none;fillColor=none;align=left;verticalAlign=top;spacingLeft=4;spacingRight=4;overflow=hidden;rotatable=0;points=[[0,0.5],[1,0.5]];portConstraint=eastwest;whiteSpace=wrap;html=1;" parent="v_qziSdxNHRrXzCHgyad-55" vertex="1">
          <mxGeometry y="60" width="160" height="26" as="geometry" />
        </mxCell>
        <mxCell id="eufe9mDObSMy9DqYyHRr-1" value="conductores" style="endArrow=block;endFill=1;html=1;edgeStyle=orthogonalEdgeStyle;align=left;verticalAlign=top;rounded=0;exitX=1;exitY=0.5;exitDx=0;exitDy=0;entryX=0;entryY=0.25;entryDx=0;entryDy=0;" parent="1" source="LPZ_iTTPC1OW5Bad9vyf-11" target="v_qziSdxNHRrXzCHgyad-49" edge="1">
          <mxGeometry x="-0.5557" y="-2" relative="1" as="geometry">
            <mxPoint x="680" y="-130" as="sourcePoint" />
            <mxPoint x="827.0000000000005" y="-151" as="targetPoint" />
            <mxPoint as="offset" />
          </mxGeometry>
        </mxCell>
        <mxCell id="eufe9mDObSMy9DqYyHRr-2" value="*" style="edgeLabel;resizable=0;html=1;align=left;verticalAlign=bottom;fontSize=21;" parent="eufe9mDObSMy9DqYyHRr-1" connectable="0" vertex="1">
          <mxGeometry x="-1" relative="1" as="geometry">
            <mxPoint x="140" y="6" as="offset" />
          </mxGeometry>
        </mxCell>
        <mxCell id="yJXyIbkkPUpZtxzlh9dZ-1" value="Punto" style="swimlane;fontStyle=1;align=center;verticalAlign=top;childLayout=stackLayout;horizontal=1;startSize=26;horizontalStack=0;resizeParent=1;resizeParentMax=0;resizeLast=0;collapsible=1;marginBottom=0;whiteSpace=wrap;html=1;" parent="1" vertex="1">
          <mxGeometry x="2020" y="86" width="210" height="110" as="geometry" />
        </mxCell>
        <mxCell id="yJXyIbkkPUpZtxzlh9dZ-2" value="- X: Double&lt;br&gt;- Y: Double" style="text;strokeColor=none;fillColor=none;align=left;verticalAlign=top;spacingLeft=4;spacingRight=4;overflow=hidden;rotatable=0;points=[[0,0.5],[1,0.5]];portConstraint=eastwest;whiteSpace=wrap;html=1;" parent="yJXyIbkkPUpZtxzlh9dZ-1" vertex="1">
          <mxGeometry y="26" width="210" height="34" as="geometry" />
        </mxCell>
        <mxCell id="yJXyIbkkPUpZtxzlh9dZ-3" value="" style="line;strokeWidth=1;fillColor=none;align=left;verticalAlign=middle;spacingTop=-1;spacingLeft=3;spacingRight=3;rotatable=0;labelPosition=right;points=[];portConstraint=eastwest;strokeColor=inherit;" parent="yJXyIbkkPUpZtxzlh9dZ-1" vertex="1">
          <mxGeometry y="60" width="210" height="8" as="geometry" />
        </mxCell>
        <mxCell id="yJXyIbkkPUpZtxzlh9dZ-4" value="+ calcularDistancia(Punto): Double" style="text;strokeColor=none;fillColor=none;align=left;verticalAlign=top;spacingLeft=4;spacingRight=4;overflow=hidden;rotatable=0;points=[[0,0.5],[1,0.5]];portConstraint=eastwest;whiteSpace=wrap;html=1;" parent="yJXyIbkkPUpZtxzlh9dZ-1" vertex="1">
          <mxGeometry y="68" width="210" height="42" as="geometry" />
        </mxCell>
        <mxCell id="ZARA003NlYtr1Od_EZ7e-1" value="Par&amp;lt;A,B&amp;gt;" style="swimlane;fontStyle=1;align=center;verticalAlign=top;childLayout=stackLayout;horizontal=1;startSize=26;horizontalStack=0;resizeParent=1;resizeParentMax=0;resizeLast=0;collapsible=1;marginBottom=0;whiteSpace=wrap;html=1;" parent="1" vertex="1">
          <mxGeometry x="2271" y="86" width="210" height="110" as="geometry" />
        </mxCell>
        <mxCell id="ZARA003NlYtr1Od_EZ7e-2" value="- X: A&lt;br&gt;- Y: B" style="text;strokeColor=none;fillColor=none;align=left;verticalAlign=top;spacingLeft=4;spacingRight=4;overflow=hidden;rotatable=0;points=[[0,0.5],[1,0.5]];portConstraint=eastwest;whiteSpace=wrap;html=1;" parent="ZARA003NlYtr1Od_EZ7e-1" vertex="1">
          <mxGeometry y="26" width="210" height="34" as="geometry" />
        </mxCell>
        <mxCell id="ZARA003NlYtr1Od_EZ7e-3" value="" style="line;strokeWidth=1;fillColor=none;align=left;verticalAlign=middle;spacingTop=-1;spacingLeft=3;spacingRight=3;rotatable=0;labelPosition=right;points=[];portConstraint=eastwest;strokeColor=inherit;" parent="ZARA003NlYtr1Od_EZ7e-1" vertex="1">
          <mxGeometry y="60" width="210" height="8" as="geometry" />
        </mxCell>
        <mxCell id="ZARA003NlYtr1Od_EZ7e-4" value="+ getFirst(): A&lt;br&gt;+ getSecond(): B" style="text;strokeColor=none;fillColor=none;align=left;verticalAlign=top;spacingLeft=4;spacingRight=4;overflow=hidden;rotatable=0;points=[[0,0.5],[1,0.5]];portConstraint=eastwest;whiteSpace=wrap;html=1;" parent="ZARA003NlYtr1Od_EZ7e-1" vertex="1">
          <mxGeometry y="68" width="210" height="42" as="geometry" />
        </mxCell>
        <mxCell id="ZARA003NlYtr1Od_EZ7e-5" style="edgeStyle=orthogonalEdgeStyle;rounded=0;orthogonalLoop=1;jettySize=auto;html=1;entryX=0;entryY=0.5;entryDx=0;entryDy=0;endArrow=block;endFill=0;" parent="1" source="yJXyIbkkPUpZtxzlh9dZ-2" target="ZARA003NlYtr1Od_EZ7e-2" edge="1">
          <mxGeometry relative="1" as="geometry" />
        </mxCell>
        <mxCell id="LPZ_iTTPC1OW5Bad9vyf-3" value="camion" style="endArrow=block;endFill=1;html=1;edgeStyle=orthogonalEdgeStyle;align=left;verticalAlign=top;rounded=0;exitX=0.25;exitY=0;exitDx=0;exitDy=0;entryX=0.319;entryY=1.038;entryDx=0;entryDy=0;entryPerimeter=0;" parent="1" source="v_qziSdxNHRrXzCHgyad-49" edge="1" target="LPZ_iTTPC1OW5Bad9vyf-6">
          <mxGeometry x="0.0204" y="17" relative="1" as="geometry">
            <mxPoint x="840" y="-240" as="sourcePoint" />
            <mxPoint x="867" y="-260" as="targetPoint" />
            <mxPoint as="offset" />
          </mxGeometry>
        </mxCell>
        <mxCell id="LPZ_iTTPC1OW5Bad9vyf-4" value="1" style="edgeLabel;resizable=0;html=1;align=left;verticalAlign=bottom;" parent="LPZ_iTTPC1OW5Bad9vyf-3" connectable="0" vertex="1">
          <mxGeometry x="-1" relative="1" as="geometry">
            <mxPoint x="-27" y="-57" as="offset" />
          </mxGeometry>
        </mxCell>
        <mxCell id="LPZ_iTTPC1OW5Bad9vyf-8" value="conductor" style="endArrow=block;endFill=1;html=1;edgeStyle=orthogonalEdgeStyle;align=left;verticalAlign=top;rounded=0;exitX=0.697;exitY=1.007;exitDx=0;exitDy=0;exitPerimeter=0;entryX=0.785;entryY=-0.002;entryDx=0;entryDy=0;entryPerimeter=0;" parent="1" source="LPZ_iTTPC1OW5Bad9vyf-6" target="v_qziSdxNHRrXzCHgyad-49" edge="1">
          <mxGeometry x="-0.5874" y="-13" relative="1" as="geometry">
            <mxPoint x="952.5799999999999" y="-267.116" as="sourcePoint" />
            <mxPoint x="1110" y="-230" as="targetPoint" />
            <mxPoint as="offset" />
          </mxGeometry>
        </mxCell>
        <mxCell id="LPZ_iTTPC1OW5Bad9vyf-9" value="1" style="edgeLabel;resizable=0;html=1;align=left;verticalAlign=bottom;" parent="LPZ_iTTPC1OW5Bad9vyf-8" connectable="0" vertex="1">
          <mxGeometry x="-1" relative="1" as="geometry">
            <mxPoint x="-13" y="70" as="offset" />
          </mxGeometry>
        </mxCell>
        <mxCell id="e3Tv4PrM7sJhTQVXualJ-29" value="FaseDeBuqueInbound" style="swimlane;fontStyle=1;align=center;verticalAlign=top;childLayout=stackLayout;horizontal=1;startSize=26;horizontalStack=0;resizeParent=1;resizeParentMax=0;resizeLast=0;collapsible=1;marginBottom=0;whiteSpace=wrap;html=1;" vertex="1" parent="1">
          <mxGeometry x="2220" y="-800" width="240" height="190" as="geometry" />
        </mxCell>
        <mxCell id="e3Tv4PrM7sJhTQVXualJ-30" value="+ field: type" style="text;strokeColor=none;fillColor=none;align=left;verticalAlign=top;spacingLeft=4;spacingRight=4;overflow=hidden;rotatable=0;points=[[0,0.5],[1,0.5]];portConstraint=eastwest;whiteSpace=wrap;html=1;" vertex="1" parent="e3Tv4PrM7sJhTQVXualJ-29">
          <mxGeometry y="26" width="240" height="26" as="geometry" />
        </mxCell>
        <mxCell id="e3Tv4PrM7sJhTQVXualJ-31" value="" style="line;strokeWidth=1;fillColor=none;align=left;verticalAlign=middle;spacingTop=-1;spacingLeft=3;spacingRight=3;rotatable=0;labelPosition=right;points=[];portConstraint=eastwest;strokeColor=inherit;" vertex="1" parent="e3Tv4PrM7sJhTQVXualJ-29">
          <mxGeometry y="52" width="240" height="8" as="geometry" />
        </mxCell>
        <mxCell id="e3Tv4PrM7sJhTQVXualJ-32" value="&lt;p style=&quot;border-color: var(--border-color); margin: 0px 0px 0px 4px;&quot;&gt;+ siguienteFase(Buque): FaseDeBuque&lt;br&gt;&lt;/p&gt;" style="text;strokeColor=none;fillColor=none;align=left;verticalAlign=top;spacingLeft=4;spacingRight=4;overflow=hidden;rotatable=0;points=[[0,0.5],[1,0.5]];portConstraint=eastwest;whiteSpace=wrap;html=1;" vertex="1" parent="e3Tv4PrM7sJhTQVXualJ-29">
          <mxGeometry y="60" width="240" height="26" as="geometry" />
        </mxCell>
        <mxCell id="e3Tv4PrM7sJhTQVXualJ-33" value="&lt;p style=&quot;border-color: var(--border-color); margin: 0px 0px 0px 4px;&quot;&gt;+ avisarArriboATerminal(Buque): void&lt;br&gt;&lt;/p&gt;" style="text;strokeColor=none;fillColor=none;align=left;verticalAlign=top;spacingLeft=4;spacingRight=4;overflow=hidden;rotatable=0;points=[[0,0.5],[1,0.5]];portConstraint=eastwest;whiteSpace=wrap;html=1;" vertex="1" parent="e3Tv4PrM7sJhTQVXualJ-29">
          <mxGeometry y="86" width="240" height="26" as="geometry" />
        </mxCell>
        <mxCell id="e3Tv4PrM7sJhTQVXualJ-34" value="&lt;p style=&quot;border-color: var(--border-color); margin: 0px 0px 0px 4px;&quot;&gt;+ realizarCargaYDescarga(Buque): void&lt;br&gt;&lt;/p&gt;" style="text;strokeColor=none;fillColor=none;align=left;verticalAlign=top;spacingLeft=4;spacingRight=4;overflow=hidden;rotatable=0;points=[[0,0.5],[1,0.5]];portConstraint=eastwest;whiteSpace=wrap;html=1;" vertex="1" parent="e3Tv4PrM7sJhTQVXualJ-29">
          <mxGeometry y="112" width="240" height="26" as="geometry" />
        </mxCell>
        <mxCell id="e3Tv4PrM7sJhTQVXualJ-35" value="&lt;p style=&quot;border-color: var(--border-color); margin: 0px 0px 0px 4px;&quot;&gt;+ depart(Buque): void&lt;br&gt;&lt;/p&gt;" style="text;strokeColor=none;fillColor=none;align=left;verticalAlign=top;spacingLeft=4;spacingRight=4;overflow=hidden;rotatable=0;points=[[0,0.5],[1,0.5]];portConstraint=eastwest;whiteSpace=wrap;html=1;" vertex="1" parent="e3Tv4PrM7sJhTQVXualJ-29">
          <mxGeometry y="138" width="240" height="26" as="geometry" />
        </mxCell>
        <mxCell id="e3Tv4PrM7sJhTQVXualJ-36" value="&lt;p style=&quot;border-color: var(--border-color); margin: 0px 0px 0px 4px;&quot;&gt;+ avisarPartidaATerminal(Buque): void&lt;br&gt;&lt;/p&gt;" style="text;strokeColor=none;fillColor=none;align=left;verticalAlign=top;spacingLeft=4;spacingRight=4;overflow=hidden;rotatable=0;points=[[0,0.5],[1,0.5]];portConstraint=eastwest;whiteSpace=wrap;html=1;" vertex="1" parent="e3Tv4PrM7sJhTQVXualJ-29">
          <mxGeometry y="164" width="240" height="26" as="geometry" />
        </mxCell>
        <mxCell id="e3Tv4PrM7sJhTQVXualJ-37" value="FaseDeBuqueWorking" style="swimlane;fontStyle=1;align=center;verticalAlign=top;childLayout=stackLayout;horizontal=1;startSize=26;horizontalStack=0;resizeParent=1;resizeParentMax=0;resizeLast=0;collapsible=1;marginBottom=0;whiteSpace=wrap;html=1;" vertex="1" parent="1">
          <mxGeometry x="2760" y="-800" width="240" height="190" as="geometry" />
        </mxCell>
        <mxCell id="e3Tv4PrM7sJhTQVXualJ-38" value="+ field: type" style="text;strokeColor=none;fillColor=none;align=left;verticalAlign=top;spacingLeft=4;spacingRight=4;overflow=hidden;rotatable=0;points=[[0,0.5],[1,0.5]];portConstraint=eastwest;whiteSpace=wrap;html=1;" vertex="1" parent="e3Tv4PrM7sJhTQVXualJ-37">
          <mxGeometry y="26" width="240" height="26" as="geometry" />
        </mxCell>
        <mxCell id="e3Tv4PrM7sJhTQVXualJ-39" value="" style="line;strokeWidth=1;fillColor=none;align=left;verticalAlign=middle;spacingTop=-1;spacingLeft=3;spacingRight=3;rotatable=0;labelPosition=right;points=[];portConstraint=eastwest;strokeColor=inherit;" vertex="1" parent="e3Tv4PrM7sJhTQVXualJ-37">
          <mxGeometry y="52" width="240" height="8" as="geometry" />
        </mxCell>
        <mxCell id="e3Tv4PrM7sJhTQVXualJ-40" value="&lt;p style=&quot;border-color: var(--border-color); margin: 0px 0px 0px 4px;&quot;&gt;+ siguienteFase(Buque): FaseDeBuque&lt;br&gt;&lt;/p&gt;" style="text;strokeColor=none;fillColor=none;align=left;verticalAlign=top;spacingLeft=4;spacingRight=4;overflow=hidden;rotatable=0;points=[[0,0.5],[1,0.5]];portConstraint=eastwest;whiteSpace=wrap;html=1;" vertex="1" parent="e3Tv4PrM7sJhTQVXualJ-37">
          <mxGeometry y="60" width="240" height="26" as="geometry" />
        </mxCell>
        <mxCell id="e3Tv4PrM7sJhTQVXualJ-41" value="&lt;p style=&quot;border-color: var(--border-color); margin: 0px 0px 0px 4px;&quot;&gt;+ avisarArriboATerminal(Buque): void&lt;br&gt;&lt;/p&gt;" style="text;strokeColor=none;fillColor=none;align=left;verticalAlign=top;spacingLeft=4;spacingRight=4;overflow=hidden;rotatable=0;points=[[0,0.5],[1,0.5]];portConstraint=eastwest;whiteSpace=wrap;html=1;" vertex="1" parent="e3Tv4PrM7sJhTQVXualJ-37">
          <mxGeometry y="86" width="240" height="26" as="geometry" />
        </mxCell>
        <mxCell id="e3Tv4PrM7sJhTQVXualJ-42" value="&lt;p style=&quot;border-color: var(--border-color); margin: 0px 0px 0px 4px;&quot;&gt;+ realizarCargaYDescarga(Buque): void&lt;br&gt;&lt;/p&gt;" style="text;strokeColor=none;fillColor=none;align=left;verticalAlign=top;spacingLeft=4;spacingRight=4;overflow=hidden;rotatable=0;points=[[0,0.5],[1,0.5]];portConstraint=eastwest;whiteSpace=wrap;html=1;" vertex="1" parent="e3Tv4PrM7sJhTQVXualJ-37">
          <mxGeometry y="112" width="240" height="26" as="geometry" />
        </mxCell>
        <mxCell id="e3Tv4PrM7sJhTQVXualJ-43" value="&lt;p style=&quot;border-color: var(--border-color); margin: 0px 0px 0px 4px;&quot;&gt;+ depart(Buque): void&lt;br&gt;&lt;/p&gt;" style="text;strokeColor=none;fillColor=none;align=left;verticalAlign=top;spacingLeft=4;spacingRight=4;overflow=hidden;rotatable=0;points=[[0,0.5],[1,0.5]];portConstraint=eastwest;whiteSpace=wrap;html=1;" vertex="1" parent="e3Tv4PrM7sJhTQVXualJ-37">
          <mxGeometry y="138" width="240" height="26" as="geometry" />
        </mxCell>
        <mxCell id="e3Tv4PrM7sJhTQVXualJ-44" value="&lt;p style=&quot;border-color: var(--border-color); margin: 0px 0px 0px 4px;&quot;&gt;+ avisarPartidaATerminal(Buque): void&lt;br&gt;&lt;/p&gt;" style="text;strokeColor=none;fillColor=none;align=left;verticalAlign=top;spacingLeft=4;spacingRight=4;overflow=hidden;rotatable=0;points=[[0,0.5],[1,0.5]];portConstraint=eastwest;whiteSpace=wrap;html=1;" vertex="1" parent="e3Tv4PrM7sJhTQVXualJ-37">
          <mxGeometry y="164" width="240" height="26" as="geometry" />
        </mxCell>
        <mxCell id="e3Tv4PrM7sJhTQVXualJ-45" value="FaseDeBuqueArrived" style="swimlane;fontStyle=1;align=center;verticalAlign=top;childLayout=stackLayout;horizontal=1;startSize=26;horizontalStack=0;resizeParent=1;resizeParentMax=0;resizeLast=0;collapsible=1;marginBottom=0;whiteSpace=wrap;html=1;" vertex="1" parent="1">
          <mxGeometry x="2490" y="-800" width="240" height="190" as="geometry" />
        </mxCell>
        <mxCell id="e3Tv4PrM7sJhTQVXualJ-46" value="+ field: type" style="text;strokeColor=none;fillColor=none;align=left;verticalAlign=top;spacingLeft=4;spacingRight=4;overflow=hidden;rotatable=0;points=[[0,0.5],[1,0.5]];portConstraint=eastwest;whiteSpace=wrap;html=1;" vertex="1" parent="e3Tv4PrM7sJhTQVXualJ-45">
          <mxGeometry y="26" width="240" height="26" as="geometry" />
        </mxCell>
        <mxCell id="e3Tv4PrM7sJhTQVXualJ-47" value="" style="line;strokeWidth=1;fillColor=none;align=left;verticalAlign=middle;spacingTop=-1;spacingLeft=3;spacingRight=3;rotatable=0;labelPosition=right;points=[];portConstraint=eastwest;strokeColor=inherit;" vertex="1" parent="e3Tv4PrM7sJhTQVXualJ-45">
          <mxGeometry y="52" width="240" height="8" as="geometry" />
        </mxCell>
        <mxCell id="e3Tv4PrM7sJhTQVXualJ-48" value="&lt;p style=&quot;border-color: var(--border-color); margin: 0px 0px 0px 4px;&quot;&gt;+ siguienteFase(Buque): FaseDeBuque&lt;br&gt;&lt;/p&gt;" style="text;strokeColor=none;fillColor=none;align=left;verticalAlign=top;spacingLeft=4;spacingRight=4;overflow=hidden;rotatable=0;points=[[0,0.5],[1,0.5]];portConstraint=eastwest;whiteSpace=wrap;html=1;" vertex="1" parent="e3Tv4PrM7sJhTQVXualJ-45">
          <mxGeometry y="60" width="240" height="26" as="geometry" />
        </mxCell>
        <mxCell id="e3Tv4PrM7sJhTQVXualJ-49" value="&lt;p style=&quot;border-color: var(--border-color); margin: 0px 0px 0px 4px;&quot;&gt;+ avisarArriboATerminal(Buque): void&lt;br&gt;&lt;/p&gt;" style="text;strokeColor=none;fillColor=none;align=left;verticalAlign=top;spacingLeft=4;spacingRight=4;overflow=hidden;rotatable=0;points=[[0,0.5],[1,0.5]];portConstraint=eastwest;whiteSpace=wrap;html=1;" vertex="1" parent="e3Tv4PrM7sJhTQVXualJ-45">
          <mxGeometry y="86" width="240" height="26" as="geometry" />
        </mxCell>
        <mxCell id="e3Tv4PrM7sJhTQVXualJ-50" value="&lt;p style=&quot;border-color: var(--border-color); margin: 0px 0px 0px 4px;&quot;&gt;+ realizarCargaYDescarga(Buque): void&lt;br&gt;&lt;/p&gt;" style="text;strokeColor=none;fillColor=none;align=left;verticalAlign=top;spacingLeft=4;spacingRight=4;overflow=hidden;rotatable=0;points=[[0,0.5],[1,0.5]];portConstraint=eastwest;whiteSpace=wrap;html=1;" vertex="1" parent="e3Tv4PrM7sJhTQVXualJ-45">
          <mxGeometry y="112" width="240" height="26" as="geometry" />
        </mxCell>
        <mxCell id="e3Tv4PrM7sJhTQVXualJ-51" value="&lt;p style=&quot;border-color: var(--border-color); margin: 0px 0px 0px 4px;&quot;&gt;+ depart(Buque): void&lt;br&gt;&lt;/p&gt;" style="text;strokeColor=none;fillColor=none;align=left;verticalAlign=top;spacingLeft=4;spacingRight=4;overflow=hidden;rotatable=0;points=[[0,0.5],[1,0.5]];portConstraint=eastwest;whiteSpace=wrap;html=1;" vertex="1" parent="e3Tv4PrM7sJhTQVXualJ-45">
          <mxGeometry y="138" width="240" height="26" as="geometry" />
        </mxCell>
        <mxCell id="e3Tv4PrM7sJhTQVXualJ-52" value="&lt;p style=&quot;border-color: var(--border-color); margin: 0px 0px 0px 4px;&quot;&gt;+ avisarPartidaATerminal(Buque): void&lt;br&gt;&lt;/p&gt;" style="text;strokeColor=none;fillColor=none;align=left;verticalAlign=top;spacingLeft=4;spacingRight=4;overflow=hidden;rotatable=0;points=[[0,0.5],[1,0.5]];portConstraint=eastwest;whiteSpace=wrap;html=1;" vertex="1" parent="e3Tv4PrM7sJhTQVXualJ-45">
          <mxGeometry y="164" width="240" height="26" as="geometry" />
        </mxCell>
        <mxCell id="e3Tv4PrM7sJhTQVXualJ-21" value="FaseDeBuqueDeparting" style="swimlane;fontStyle=1;align=center;verticalAlign=top;childLayout=stackLayout;horizontal=1;startSize=26;horizontalStack=0;resizeParent=1;resizeParentMax=0;resizeLast=0;collapsible=1;marginBottom=0;whiteSpace=wrap;html=1;" vertex="1" parent="1">
          <mxGeometry x="3030" y="-800" width="240" height="190" as="geometry" />
        </mxCell>
        <mxCell id="e3Tv4PrM7sJhTQVXualJ-22" value="+ field: type" style="text;strokeColor=none;fillColor=none;align=left;verticalAlign=top;spacingLeft=4;spacingRight=4;overflow=hidden;rotatable=0;points=[[0,0.5],[1,0.5]];portConstraint=eastwest;whiteSpace=wrap;html=1;" vertex="1" parent="e3Tv4PrM7sJhTQVXualJ-21">
          <mxGeometry y="26" width="240" height="26" as="geometry" />
        </mxCell>
        <mxCell id="e3Tv4PrM7sJhTQVXualJ-23" value="" style="line;strokeWidth=1;fillColor=none;align=left;verticalAlign=middle;spacingTop=-1;spacingLeft=3;spacingRight=3;rotatable=0;labelPosition=right;points=[];portConstraint=eastwest;strokeColor=inherit;" vertex="1" parent="e3Tv4PrM7sJhTQVXualJ-21">
          <mxGeometry y="52" width="240" height="8" as="geometry" />
        </mxCell>
        <mxCell id="e3Tv4PrM7sJhTQVXualJ-24" value="&lt;p style=&quot;border-color: var(--border-color); margin: 0px 0px 0px 4px;&quot;&gt;+ siguienteFase(Buque): FaseDeBuque&lt;br&gt;&lt;/p&gt;" style="text;strokeColor=none;fillColor=none;align=left;verticalAlign=top;spacingLeft=4;spacingRight=4;overflow=hidden;rotatable=0;points=[[0,0.5],[1,0.5]];portConstraint=eastwest;whiteSpace=wrap;html=1;" vertex="1" parent="e3Tv4PrM7sJhTQVXualJ-21">
          <mxGeometry y="60" width="240" height="26" as="geometry" />
        </mxCell>
        <mxCell id="e3Tv4PrM7sJhTQVXualJ-25" value="&lt;p style=&quot;border-color: var(--border-color); margin: 0px 0px 0px 4px;&quot;&gt;+ avisarArriboATerminal(Buque): void&lt;br&gt;&lt;/p&gt;" style="text;strokeColor=none;fillColor=none;align=left;verticalAlign=top;spacingLeft=4;spacingRight=4;overflow=hidden;rotatable=0;points=[[0,0.5],[1,0.5]];portConstraint=eastwest;whiteSpace=wrap;html=1;" vertex="1" parent="e3Tv4PrM7sJhTQVXualJ-21">
          <mxGeometry y="86" width="240" height="26" as="geometry" />
        </mxCell>
        <mxCell id="e3Tv4PrM7sJhTQVXualJ-26" value="&lt;p style=&quot;border-color: var(--border-color); margin: 0px 0px 0px 4px;&quot;&gt;+ realizarCargaYDescarga(Buque): void&lt;br&gt;&lt;/p&gt;" style="text;strokeColor=none;fillColor=none;align=left;verticalAlign=top;spacingLeft=4;spacingRight=4;overflow=hidden;rotatable=0;points=[[0,0.5],[1,0.5]];portConstraint=eastwest;whiteSpace=wrap;html=1;" vertex="1" parent="e3Tv4PrM7sJhTQVXualJ-21">
          <mxGeometry y="112" width="240" height="26" as="geometry" />
        </mxCell>
        <mxCell id="e3Tv4PrM7sJhTQVXualJ-27" value="&lt;p style=&quot;border-color: var(--border-color); margin: 0px 0px 0px 4px;&quot;&gt;+ depart(Buque): void&lt;br&gt;&lt;/p&gt;" style="text;strokeColor=none;fillColor=none;align=left;verticalAlign=top;spacingLeft=4;spacingRight=4;overflow=hidden;rotatable=0;points=[[0,0.5],[1,0.5]];portConstraint=eastwest;whiteSpace=wrap;html=1;" vertex="1" parent="e3Tv4PrM7sJhTQVXualJ-21">
          <mxGeometry y="138" width="240" height="26" as="geometry" />
        </mxCell>
        <mxCell id="e3Tv4PrM7sJhTQVXualJ-28" value="&lt;p style=&quot;border-color: var(--border-color); margin: 0px 0px 0px 4px;&quot;&gt;+ avisarPartidaATerminal(Buque): void&lt;br&gt;&lt;/p&gt;" style="text;strokeColor=none;fillColor=none;align=left;verticalAlign=top;spacingLeft=4;spacingRight=4;overflow=hidden;rotatable=0;points=[[0,0.5],[1,0.5]];portConstraint=eastwest;whiteSpace=wrap;html=1;" vertex="1" parent="e3Tv4PrM7sJhTQVXualJ-21">
          <mxGeometry y="164" width="240" height="26" as="geometry" />
        </mxCell>
        <mxCell id="e3Tv4PrM7sJhTQVXualJ-53" value="" style="endArrow=block;dashed=1;endFill=0;endSize=12;html=1;rounded=0;exitX=0.482;exitY=1.048;exitDx=0;exitDy=0;entryX=0.5;entryY=0;entryDx=0;entryDy=0;exitPerimeter=0;" edge="1" parent="1" source="e3Tv4PrM7sJhTQVXualJ-20" target="wMsCpwQgi6BDoyRRbQmV-47">
          <mxGeometry width="160" relative="1" as="geometry">
            <mxPoint x="2250" y="-428" as="sourcePoint" />
            <mxPoint x="2540" y="-550" as="targetPoint" />
          </mxGeometry>
        </mxCell>
        <mxCell id="e3Tv4PrM7sJhTQVXualJ-54" value="" style="endArrow=block;dashed=1;endFill=0;endSize=12;html=1;rounded=0;exitX=0.501;exitY=1.148;exitDx=0;exitDy=0;entryX=0.5;entryY=0;entryDx=0;entryDy=0;exitPerimeter=0;" edge="1" parent="1" source="e3Tv4PrM7sJhTQVXualJ-36" target="wMsCpwQgi6BDoyRRbQmV-47">
          <mxGeometry width="160" relative="1" as="geometry">
            <mxPoint x="2110" y="-266" as="sourcePoint" />
            <mxPoint x="2590" y="-560" as="targetPoint" />
          </mxGeometry>
        </mxCell>
        <mxCell id="e3Tv4PrM7sJhTQVXualJ-55" value="" style="endArrow=block;dashed=1;endFill=0;endSize=12;html=1;rounded=0;exitX=0.517;exitY=1.081;exitDx=0;exitDy=0;entryX=0.5;entryY=0;entryDx=0;entryDy=0;exitPerimeter=0;" edge="1" parent="1" source="e3Tv4PrM7sJhTQVXualJ-52" target="wMsCpwQgi6BDoyRRbQmV-47">
          <mxGeometry width="160" relative="1" as="geometry">
            <mxPoint x="2370" y="-266" as="sourcePoint" />
            <mxPoint x="2770" y="-540" as="targetPoint" />
          </mxGeometry>
        </mxCell>
        <mxCell id="e3Tv4PrM7sJhTQVXualJ-56" value="" style="endArrow=block;dashed=1;endFill=0;endSize=12;html=1;rounded=0;exitX=0.479;exitY=1.167;exitDx=0;exitDy=0;entryX=0.5;entryY=0;entryDx=0;entryDy=0;exitPerimeter=0;" edge="1" parent="1" source="e3Tv4PrM7sJhTQVXualJ-44" target="wMsCpwQgi6BDoyRRbQmV-47">
          <mxGeometry width="160" relative="1" as="geometry">
            <mxPoint x="2630" y="-266" as="sourcePoint" />
            <mxPoint x="2630" y="-388" as="targetPoint" />
          </mxGeometry>
        </mxCell>
        <mxCell id="e3Tv4PrM7sJhTQVXualJ-57" value="" style="endArrow=block;dashed=1;endFill=0;endSize=12;html=1;rounded=0;exitX=0.578;exitY=1.119;exitDx=0;exitDy=0;entryX=0.5;entryY=0;entryDx=0;entryDy=0;exitPerimeter=0;" edge="1" parent="1" source="e3Tv4PrM7sJhTQVXualJ-28" target="wMsCpwQgi6BDoyRRbQmV-47">
          <mxGeometry width="160" relative="1" as="geometry">
            <mxPoint x="2640" y="-256" as="sourcePoint" />
            <mxPoint x="2640" y="-378" as="targetPoint" />
          </mxGeometry>
        </mxCell>
        <mxCell id="e3Tv4PrM7sJhTQVXualJ-58" value="fase_del_buque" style="endArrow=block;endFill=1;html=1;edgeStyle=orthogonalEdgeStyle;align=left;verticalAlign=top;rounded=0;entryX=0;entryY=0.5;entryDx=0;entryDy=0;exitX=1;exitY=0.5;exitDx=0;exitDy=0;" edge="1" parent="1" target="wMsCpwQgi6BDoyRRbQmV-47">
          <mxGeometry x="-0.3985" y="-13" relative="1" as="geometry">
            <mxPoint x="2123" y="-495" as="sourcePoint" />
            <mxPoint x="3130" y="-468" as="targetPoint" />
            <mxPoint as="offset" />
          </mxGeometry>
        </mxCell>
        <mxCell id="e3Tv4PrM7sJhTQVXualJ-59" value="1" style="edgeLabel;resizable=0;html=1;align=left;verticalAlign=bottom;" connectable="0" vertex="1" parent="e3Tv4PrM7sJhTQVXualJ-58">
          <mxGeometry x="-1" relative="1" as="geometry">
            <mxPoint x="32" as="offset" />
          </mxGeometry>
        </mxCell>
        <mxCell id="e3Tv4PrM7sJhTQVXualJ-87" value="camiones" style="endArrow=block;endFill=1;html=1;edgeStyle=orthogonalEdgeStyle;align=left;verticalAlign=top;rounded=0;exitX=1;exitY=0.5;exitDx=0;exitDy=0;entryX=0;entryY=0.5;entryDx=0;entryDy=0;" edge="1" parent="1" source="I0zZV60bpWjbYKbzvoeE-10" target="I0zZV60bpWjbYKbzvoeE-12">
          <mxGeometry x="-0.2937" y="16" relative="1" as="geometry">
            <mxPoint x="730" y="-330" as="sourcePoint" />
            <mxPoint x="890" y="-330" as="targetPoint" />
            <mxPoint as="offset" />
          </mxGeometry>
        </mxCell>
        <mxCell id="e3Tv4PrM7sJhTQVXualJ-88" value="*" style="edgeLabel;resizable=0;html=1;align=left;verticalAlign=bottom;fontSize=17;" connectable="0" vertex="1" parent="e3Tv4PrM7sJhTQVXualJ-87">
          <mxGeometry x="-1" relative="1" as="geometry">
            <mxPoint x="100" y="-187" as="offset" />
          </mxGeometry>
        </mxCell>
        <mxCell id="e3Tv4PrM7sJhTQVXualJ-89" value="GPS" style="swimlane;fontStyle=1;align=center;verticalAlign=top;childLayout=stackLayout;horizontal=1;startSize=26;horizontalStack=0;resizeParent=1;resizeParentMax=0;resizeLast=0;collapsible=1;marginBottom=0;whiteSpace=wrap;html=1;" vertex="1" parent="1">
          <mxGeometry x="2040" y="-120" width="160" height="86" as="geometry" />
        </mxCell>
        <mxCell id="e3Tv4PrM7sJhTQVXualJ-91" value="" style="line;strokeWidth=1;fillColor=none;align=left;verticalAlign=middle;spacingTop=-1;spacingLeft=3;spacingRight=3;rotatable=0;labelPosition=right;points=[];portConstraint=eastwest;strokeColor=inherit;" vertex="1" parent="e3Tv4PrM7sJhTQVXualJ-89">
          <mxGeometry y="26" width="160" height="8" as="geometry" />
        </mxCell>
        <mxCell id="e3Tv4PrM7sJhTQVXualJ-92" value="+ getPosicion(): Punto" style="text;strokeColor=none;fillColor=none;align=left;verticalAlign=top;spacingLeft=4;spacingRight=4;overflow=hidden;rotatable=0;points=[[0,0.5],[1,0.5]];portConstraint=eastwest;whiteSpace=wrap;html=1;" vertex="1" parent="e3Tv4PrM7sJhTQVXualJ-89">
          <mxGeometry y="34" width="160" height="26" as="geometry" />
        </mxCell>
        <mxCell id="e3Tv4PrM7sJhTQVXualJ-93" value="+ setPosicion(Punto): void" style="text;strokeColor=none;fillColor=none;align=left;verticalAlign=top;spacingLeft=4;spacingRight=4;overflow=hidden;rotatable=0;points=[[0,0.5],[1,0.5]];portConstraint=eastwest;whiteSpace=wrap;html=1;" vertex="1" parent="e3Tv4PrM7sJhTQVXualJ-89">
          <mxGeometry y="60" width="160" height="26" as="geometry" />
        </mxCell>
        <mxCell id="e3Tv4PrM7sJhTQVXualJ-97" value="posicion" style="endArrow=block;endFill=1;html=1;edgeStyle=orthogonalEdgeStyle;align=left;verticalAlign=top;rounded=0;exitX=0.516;exitY=1.032;exitDx=0;exitDy=0;exitPerimeter=0;entryX=0.5;entryY=0;entryDx=0;entryDy=0;" edge="1" parent="1" source="e3Tv4PrM7sJhTQVXualJ-93" target="yJXyIbkkPUpZtxzlh9dZ-1">
          <mxGeometry x="-0.7188" y="-3" relative="1" as="geometry">
            <mxPoint x="1802" y="-60" as="sourcePoint" />
            <mxPoint x="1962" y="-60" as="targetPoint" />
            <mxPoint as="offset" />
          </mxGeometry>
        </mxCell>
        <mxCell id="e3Tv4PrM7sJhTQVXualJ-98" value="1" style="edgeLabel;resizable=0;html=1;align=left;verticalAlign=bottom;" connectable="0" vertex="1" parent="e3Tv4PrM7sJhTQVXualJ-97">
          <mxGeometry x="-1" relative="1" as="geometry">
            <mxPoint x="7" y="26" as="offset" />
          </mxGeometry>
        </mxCell>
        <mxCell id="e3Tv4PrM7sJhTQVXualJ-132" value="carga" style="endArrow=block;endFill=1;html=1;edgeStyle=orthogonalEdgeStyle;align=left;verticalAlign=top;rounded=0;entryX=1;entryY=0.5;entryDx=0;entryDy=0;exitX=0;exitY=0.5;exitDx=0;exitDy=0;" edge="1" parent="1" source="e3Tv4PrM7sJhTQVXualJ-9" target="I0zZV60bpWjbYKbzvoeE-4">
          <mxGeometry x="-0.4763" y="5" relative="1" as="geometry">
            <mxPoint x="1480" y="-330" as="sourcePoint" />
            <mxPoint x="1640" y="-330" as="targetPoint" />
            <mxPoint as="offset" />
          </mxGeometry>
        </mxCell>
        <mxCell id="e3Tv4PrM7sJhTQVXualJ-133" value="*" style="edgeLabel;resizable=0;html=1;align=left;verticalAlign=bottom;fontSize=18;" connectable="0" vertex="1" parent="e3Tv4PrM7sJhTQVXualJ-132">
          <mxGeometry x="-1" relative="1" as="geometry">
            <mxPoint x="-180" as="offset" />
          </mxGeometry>
        </mxCell>
        <mxCell id="e3Tv4PrM7sJhTQVXualJ-134" value="Extends" style="endArrow=block;endSize=16;endFill=0;html=1;rounded=0;exitX=0.488;exitY=1.057;exitDx=0;exitDy=0;exitPerimeter=0;entryX=0.5;entryY=0;entryDx=0;entryDy=0;" edge="1" parent="1" source="v_qziSdxNHRrXzCHgyad-58" target="I0zZV60bpWjbYKbzvoeE-3">
          <mxGeometry width="160" relative="1" as="geometry">
            <mxPoint x="1430" y="-600" as="sourcePoint" />
            <mxPoint x="1590" y="-600" as="targetPoint" />
          </mxGeometry>
        </mxCell>
        <mxCell id="e3Tv4PrM7sJhTQVXualJ-135" value="Extends" style="endArrow=block;endSize=16;endFill=0;html=1;rounded=0;exitX=0.5;exitY=1;exitDx=0;exitDy=0;entryX=0.5;entryY=0;entryDx=0;entryDy=0;" edge="1" parent="1" source="vE86NBOg6e0xh6bUCSpT-1" target="I0zZV60bpWjbYKbzvoeE-3">
          <mxGeometry width="160" relative="1" as="geometry">
            <mxPoint x="1512" y="-663" as="sourcePoint" />
            <mxPoint x="1410" y="-532" as="targetPoint" />
          </mxGeometry>
        </mxCell>
        <mxCell id="e3Tv4PrM7sJhTQVXualJ-136" value="Extends" style="endArrow=block;endSize=16;endFill=0;html=1;rounded=0;exitX=0.5;exitY=1;exitDx=0;exitDy=0;entryX=0.5;entryY=0;entryDx=0;entryDy=0;" edge="1" parent="1" source="vE86NBOg6e0xh6bUCSpT-9" target="I0zZV60bpWjbYKbzvoeE-3">
          <mxGeometry width="160" relative="1" as="geometry">
            <mxPoint x="1522" y="-653" as="sourcePoint" />
            <mxPoint x="1350" y="-590" as="targetPoint" />
          </mxGeometry>
        </mxCell>
        <mxCell id="e3Tv4PrM7sJhTQVXualJ-138" value="gps" style="endArrow=block;endFill=1;html=1;edgeStyle=orthogonalEdgeStyle;align=left;verticalAlign=top;rounded=0;exitX=1;exitY=0.5;exitDx=0;exitDy=0;entryX=0.75;entryY=0;entryDx=0;entryDy=0;" edge="1" parent="1" source="e3Tv4PrM7sJhTQVXualJ-14" target="e3Tv4PrM7sJhTQVXualJ-89">
          <mxGeometry x="-0.3501" y="-10" relative="1" as="geometry">
            <mxPoint x="2330" y="-250" as="sourcePoint" />
            <mxPoint x="2490" y="-250" as="targetPoint" />
            <mxPoint as="offset" />
          </mxGeometry>
        </mxCell>
        <mxCell id="e3Tv4PrM7sJhTQVXualJ-139" value="1" style="edgeLabel;resizable=0;html=1;align=left;verticalAlign=bottom;" connectable="0" vertex="1" parent="e3Tv4PrM7sJhTQVXualJ-138">
          <mxGeometry x="-1" relative="1" as="geometry">
            <mxPoint x="20" as="offset" />
          </mxGeometry>
        </mxCell>
      </root>
    </mxGraphModel>
  </diagram>
</mxfile>
